<?xml version="1.0" encoding="utf-8"?>
<!-- Generator: Adobe Illustrator 18.1.1, SVG Export Plug-In . SVG Version: 6.00 Build 0)  -->
<svg version="1.1" id="Слой_1" xmlns="http://www.w3.org/2000/svg" xmlns:xlink="http://www.w3.org/1999/xlink" x="0px" y="0px"
	 viewBox="0 0 46.6 46.3" enable-background="new 0 0 46.6 46.3" xml:space="preserve">
<g>
	<path fill="#FFFFFF" d="M0.8,10.3l37.9-7.7l2.5-0.5C41.5,0.9,42.6,0,43.9,0c1.5,0,2.7,1.2,2.7,2.7c0,1.5-1.2,2.7-2.7,2.7
		c-1,0-1.9-0.5-2.3-1.3l-1.8,0.4l-6.1,21.8l-0.2,0.8h-0.8H1H0v-1V11.3v-0.8L0.8,10.3z M30.1,18.9h3.4l0.8-2.9c0-0.4,0-0.8,0-1.4
		h-4.2V18.9z M2.5,12.1v1.3h4.2v-2.2L2.5,12.1z M8,14.7v4.2h4.2v-4.2H8z M6.7,14.7H2.5v4.2h4.2V14.7z M6.7,20.2H2.5v4.2h4.2V20.2z
		 M12.2,20.2H8v4.2h4.2V20.2z M8,11v2.4h4.2v-3.3L8,11z M13.5,14.7v4.2h4.3v-4.2H13.5z M17.8,20.2h-4.3v4.2h4.3V20.2z M17.8,9.2
		h-0.9l-3.4,0.7v3.5h4.3V9.2z M19.1,14.7v4.2h4.2v-4.2H19.1z M23.3,20.2h-4.2v4.2h4.2V20.2z M19.1,9.2v4.2h4.2V9.2H19.1z M24.6,14.7
		v4.2h4.2v-4.2H24.6z M24.6,9.2v4.2h4.2V9.2H24.6z M24.6,7.6v0.3h4.2V6.7L24.6,7.6z M34.3,13.4V9.2h-4.2v4.2H34.3z M34.3,7.9V5.6
		l-4.2,0.8v1.4H34.3z M35.6,9.2v2.2l0.6-2.2H35.6z M35.6,5.3v2.5h1L37.4,5L35.6,5.3z M28.8,24.4v-4.2h-4.2v4.2H28.8z M33.2,20.2h-3
		v4.2l1.9-0.1L33.2,20.2z"/>
	<path fill="#FFFFFF" d="M7.8,38.1c-0.6,0.3-1.4,0.1-1.7-0.6c-0.3-0.6-0.1-1.4,0.6-1.7l15-7.8c0.5-0.3,1-0.2,1.4,0.2l9.3,7.5
		c0.6,0.4,0.6,1.2,0.2,1.8c-0.5,0.6-1.3,0.6-1.8,0.2l-8.7-6.9L7.8,38.1z"/>
	<path fill-rule="evenodd" clip-rule="evenodd" fill="#FFFFFF" d="M7.3,39.2c2,0,3.5,1.6,3.5,3.5c0,1.9-1.6,3.5-3.5,3.5
		c-1.9,0-3.5-1.6-3.5-3.5C3.8,40.8,5.4,39.2,7.3,39.2L7.3,39.2z M7.3,40.7c1.1,0,2,0.9,2,2c0,1.1-0.9,2-2,2c-1.1,0-2-0.9-2-2
		C5.3,41.6,6.2,40.7,7.3,40.7L7.3,40.7z M31.5,39.2c1.9,0,3.5,1.6,3.5,3.5c0,1.9-1.6,3.5-3.5,3.5c-1.9,0-3.5-1.6-3.5-3.5
		C28,40.8,29.6,39.2,31.5,39.2L31.5,39.2z M31.5,40.7c1.1,0,2,0.9,2,2c0,1.1-0.9,2-2,2c-1.1,0-2-0.9-2-2
		C29.5,41.6,30.5,40.7,31.5,40.7L31.5,40.7z"/>
</g>
</svg>
