<?xml version="1.0" encoding="utf-8"?>
<!-- Generator: Adobe Illustrator 18.1.1, SVG Export Plug-In . SVG Version: 6.00 Build 0)  -->
<svg version="1.1" id="Слой_1" xmlns="http://www.w3.org/2000/svg" xmlns:xlink="http://www.w3.org/1999/xlink" x="0px" y="0px"
	 viewBox="0 0 1723.5 441" enable-background="new 0 0 1723.5 441" xml:space="preserve">
<g>
	<path fill-rule="evenodd" clip-rule="evenodd" fill="#D8D9D9" d="M6.6,0h9.7L0,7.8V3.1L6.6,0z M50.4,0h38.8L0,42.6V24.1L50.4,0z
		 M342.9,0h18.6l156.1,326.4c6.9,14.4,0.7,31.8-13.7,38.7l-159.2,76h-38.8l190.8-91c6.1-2.9,8.7-10.3,5.8-16.4L342.9,0z M377.8,0
		h4.6l152.3,318.3l0,0c5.7,11.9,6,25,1.9,36.5c-4.1,11.5-12.6,21.6-24.5,27.2l0,0l-123.6,59h-9.7l131.5-62.7l0,0
		c10.8-5.2,18.6-14.3,22.3-24.9c3.7-10.5,3.5-22.5-1.7-33.3l0,0L377.8,0z M710.5,0h9.9L556.1,76.7l0,0
		c-10.9,5.1-18.7,14.2-22.5,24.7c-3.8,10.5-3.7,22.5,1.4,33.4l0.2,0.4v0l143,305.7h-4.6L531.1,136.6l-0.2-0.4v0
		c-5.4-11.8-5.5-24.7-1.4-36.1c4.2-11.5,12.8-21.5,24.7-27.1l0.5-0.2l0,0L710.5,0z M755.2,0h39.6L569.4,105.2
		c-6.1,2.8-8.8,10.2-5.9,16.3L712.9,441h-18.6L548.2,128.6c-6.8-14.4-0.4-31.8,14.1-38.6L755.2,0z M1049.4,0h18.5L1222,329.3
		c6.8,14.5,0.5,31.8-14,38.5L1051.1,441h-39.6l189.3-88.3c6.1-2.8,8.8-10.2,5.9-16.3L1049.4,0z M1084.1,0h4.6L1239,321.3l0,0
		c5.6,11.9,5.8,25,1.6,36.5s-12.8,21.4-24.7,27l0,0L1095.6,441h-9.9l128.4-59.9l0,0c10.9-5.1,18.7-14.2,22.5-24.7
		c3.8-10.5,3.7-22.5-1.4-33.3l0,0L1084.1,0z M1413,0h10.3l-159.3,71v0c-11,4.9-19,13.8-23,24.3c-4,10.5-4.1,22.5,0.8,33.4l0.2,0.5
		l0,0L1381.3,441h-4.6L1238,130.4l-0.2-0.5v0c-5.2-11.9-5.1-24.8-0.7-36.2c4.4-11.5,13.2-21.2,25.2-26.6l0.5-0.2l0,0L1413,0z
		 M1459.4,0h41.1l-223.7,99.7c-6.2,2.8-9,10-6.2,16.2L1415.8,441h-18.4l-142.1-318.3c-6.5-14.6,0.2-31.8,14.8-38.3L1459.4,0z
		 M1723.5,438.5v2.5h-5.6L1723.5,438.5z M8.9,441H0v-18.5L8.9,441z M56.3,177.2c16.6-8.9,23.1-27.7,19.1-42.6
		C72.8,125,64,112,48,108c-10.1-4.4-33.9-0.4-43.4,21.2c-5.5,11.6-3.9,30.2,6.9,40.6l88.7,128.8l130-62.1l90.9,83.9l62.2-60.3
		l-22.8-24.4L320.1,276l-85.2-77.4l-123.3,59.1l-9.5-14.4l95.6-45.8l-13.9-29L83.2,216.6L56.3,177.2z M269.5,301.9L237,272.2
		c3.3,23,1.9,69.8-20.9,91.2c-15.9,17.7-34.7,26.7-58.4,27.9c-22.6,0.9-42.3-6-59.3-21.1c-17.7-15.5-26.9-34.8-27.9-58.2
		c-0.4-10.7,1.4-21.5,5.2-31.5l-22.9-32c-6.2,14.6-14.4,49.3-13,65.2c1.2,15.5,13.9,58.3,38.1,79.7c23.2,20.3,50.3,29.9,81.2,28.5
		c32.5-1.4,58.5-13.8,79.9-38.1C259.7,360.6,271,333.2,269.5,301.9L269.5,301.9z M739,273.7c-3.2,1.5-5.9,2.7-8.6,4.6l16.5-45.4
		l0.1-0.4v-0.6c0.6-3.7,2.6-6.4,5.2-7.9c1.9-0.9,3.8-1.4,5.5-1.7c2-0.1,3.7,0.3,5.2,1.1c2.2,0.7,3.9,2.6,4.7,5.1l-3.7,9.9l10.3,3.7
		l4.5-11.5l0.5-1.4l-0.4-1.5c-1.4-7.3-5.6-12-11.2-14.4c-3.3-1.4-6.9-2-10.4-1.9c-3.7,0.3-7.2,1.3-10.4,3.1
		c-5.4,3.1-9.6,8.2-10.6,15.4l-24.5,66.8c-12,18.1-14.6,41.3-4.8,62.3c14.9,31.9,53.2,45.7,85.9,30.5c31.7-14.8,45.8-51.4,32.5-83
		l0.4,0.1c9.3-11.4,18.3-18.8,28.6-23.6c10.1-4.4,21.7-6.3,36.3-6.4c15.8,30.1,52.6,42.8,84.4,28c28.3-13.2,42.8-44.5,35.8-73.5
		l18.4-130.6c0.3-3.7,2.6-6.4,5.2-8c1.7-0.8,3.7-1.4,5.4-1.7c1.8,0,3.7,0.3,5.3,1.1c2.1,0.8,3.9,2.5,4.7,5l-3.7,9.9l10.3,3.7
		l4.5-11.5l0.4-1.6l-0.3-1.4c-1.6-7.1-5.9-11.9-11.2-14.4c-3.3-1.4-6.9-2-10.6-1.7c-3.5,0.1-7.2,1.3-10.2,3
		c-5.6,3.2-10,8.5-10.8,16.2l-16,112.2c-16.9-26-51.7-36.2-81.2-22.4c-29.8,13.9-44.1,46.9-35.1,76.6c-14,0.5-25.6,2.9-36,7.5
		c-11.2,4.9-20.4,12.4-30,23C802.8,270,768.5,260,739,273.7L739,273.7z M742.9,284.4c26.5-12.4,58-0.8,70.4,25.6
		c12.4,26.5,0.9,57.9-25.6,70.3c-26.5,12.4-58,0.9-70.4-25.6C705,328.2,716.4,296.8,742.9,284.4L742.9,284.4z M745.4,289.8
		c23.5-11,51.5-0.7,62.5,22.7c11,23.5,0.8,51.5-22.7,62.5c-23.5,11-51.5,0.7-62.5-22.8C711.8,328.7,721.9,300.7,745.4,289.8
		L745.4,289.8z M925.9,199.1c26.5-12.3,58-0.9,70.4,25.6c12.3,26.4,0.8,58-25.6,70.3c-26.5,12.4-58,0.8-70.4-25.6
		C887.9,242.9,899.4,211.4,925.9,199.1L925.9,199.1z M928.4,204.5c23.5-10.9,51.5-0.8,62.5,22.7c11,23.5,0.8,51.4-22.7,62.4
		c-23.5,11-51.5,0.8-62.5-22.7S904.9,215.4,928.4,204.5L928.4,204.5z M1497.9,174.7l113.8-50.6c0.1,46.5,10.2,95.8,31.5,143.7
		c19.4,43.6,45.9,81,76.5,110.9L1615,425.3c-1.7-42.7-11.9-87.4-31.3-130.9C1562.4,246.4,1532.5,205.9,1497.9,174.7L1497.9,174.7z
		 M1513.1,55.9c22.9-10.2,49.7,0.1,59.9,23c10.2,22.8-0.1,49.6-23,59.8c-23,10.2-49.8-0.1-60-22.9
		C1479.9,92.9,1490.2,66.1,1513.1,55.9L1513.1,55.9z"/>
</g>
</svg>
