<?xml version="1.0" encoding="utf-8"?>
<!-- Generator: Adobe Illustrator 18.1.1, SVG Export Plug-In . SVG Version: 6.00 Build 0)  -->
<svg version="1.1" id="Слой_1" xmlns="http://www.w3.org/2000/svg" xmlns:xlink="http://www.w3.org/1999/xlink" x="0px" y="0px"
	 viewBox="0 0 1726.8 20.3" enable-background="new 0 0 1726.8 20.3" xml:space="preserve">
<g>
	<path fill="#161717" d="M2.3,0C3,0,3.5,0.2,4,0.7c0.5,0.5,0.7,1,0.7,1.6C4.6,3,4.4,3.5,4,4C3.5,4.4,3,4.6,2.3,4.6
		C1.7,4.6,1.1,4.4,0.7,4C0.2,3.5,0,3,0,2.3c0-0.6,0.2-1.2,0.7-1.6S1.7,0,2.3,0L2.3,0z M2.3,7.8C3,7.8,3.5,8,4,8.5
		c0.5,0.5,0.7,1,0.7,1.6c0,0.6-0.2,1.2-0.7,1.6c-0.5,0.5-1,0.7-1.6,0.7c-0.6,0-1.2-0.2-1.7-0.7c-0.5-0.5-0.7-1-0.7-1.6
		s0.2-1.2,0.7-1.6S1.7,7.8,2.3,7.8L2.3,7.8z M2.3,15.6c0.6,0,1.2,0.2,1.6,0.7c0.5,0.5,0.7,1,0.7,1.6c0,0.6-0.2,1.2-0.7,1.7
		c-0.5,0.5-1,0.7-1.6,0.7c-0.6,0-1.2-0.2-1.7-0.7S0,18.6,0,17.9c0-0.6,0.2-1.2,0.7-1.6S1.7,15.6,2.3,15.6L2.3,15.6z M9.4,0
		C10,0,10.5,0.2,11,0.7s0.7,1,0.7,1.6C11.7,3,11.4,3.5,11,4c-0.5,0.5-1,0.7-1.6,0.7C8.7,4.6,8.2,4.4,7.7,4C7.3,3.5,7,3,7,2.3
		c0-0.6,0.2-1.2,0.6-1.6C8.2,0.2,8.7,0,9.4,0L9.4,0z M28.3,7.8c0.6,0,1.2,0.2,1.6,0.6c0.5,0.5,0.7,1,0.7,1.7c0,0.6-0.2,1.2-0.7,1.6
		c-0.5,0.5-1,0.7-1.6,0.7c-0.7,0-1.2-0.2-1.7-0.7c-0.5-0.5-0.7-1-0.7-1.6c0-0.6,0.2-1.2,0.7-1.7C27,8,27.6,7.8,28.3,7.8L28.3,7.8z
		 M21.2,0c0.6,0,1.2,0.2,1.6,0.7c0.5,0.5,0.7,1,0.7,1.6S23.3,3.5,22.8,4c-0.5,0.5-1,0.7-1.6,0.7c-0.6,0-1.2-0.2-1.7-0.7
		c-0.5-0.5-0.7-1-0.7-1.7s0.2-1.2,0.7-1.6C20,0.3,20.5,0,21.2,0L21.2,0z M21.2,15.6c0.6,0,1.2,0.3,1.6,0.7c0.5,0.5,0.7,1,0.7,1.6
		c0,0.6-0.2,1.2-0.7,1.6c-0.5,0.5-1,0.7-1.6,0.7c-0.6,0-1.2-0.2-1.7-0.7c-0.5-0.5-0.7-1-0.7-1.6c0-0.6,0.2-1.2,0.7-1.6
		C20,15.9,20.5,15.6,21.2,15.6L21.2,15.6z M21.2,7.8c0.6,0,1.2,0.2,1.6,0.7c0.5,0.5,0.7,1,0.7,1.6c0,0.6-0.2,1.2-0.7,1.6
		c-0.5,0.5-1,0.7-1.6,0.7c-0.7,0-1.2-0.2-1.7-0.7c-0.4-0.5-0.6-1-0.6-1.6c0-0.6,0.2-1.2,0.6-1.6C20,8,20.5,7.8,21.2,7.8L21.2,7.8z
		 M40,0c0.6,0,1.2,0.2,1.6,0.7s0.7,1,0.7,1.6c0,0.6-0.2,1.2-0.7,1.7c-0.5,0.5-1,0.7-1.6,0.7c-0.6,0-1.2-0.2-1.7-0.7
		c-0.5-0.5-0.7-1-0.7-1.7c0-0.6,0.2-1.2,0.7-1.6C38.8,0.2,39.4,0,40,0L40,0z M47.1,7.8c0.6,0,1.2,0.2,1.6,0.7c0.5,0.5,0.7,1,0.7,1.6
		c0,0.6-0.3,1.2-0.7,1.7c-0.5,0.5-1,0.7-1.6,0.7c-0.7,0-1.2-0.2-1.7-0.7c-0.5-0.5-0.7-1-0.7-1.7c0-0.6,0.2-1.2,0.7-1.6
		S46.5,7.8,47.1,7.8L47.1,7.8z M40,15.6c0.6,0,1.2,0.2,1.6,0.7s0.7,1,0.7,1.6c0,0.6-0.2,1.2-0.7,1.7s-1,0.7-1.6,0.7
		c-0.6,0-1.2-0.2-1.7-0.7c-0.5-0.5-0.7-1-0.7-1.7c0-0.6,0.2-1.2,0.7-1.6C38.8,15.8,39.4,15.6,40,15.6L40,15.6z M65.9,0
		c0.6,0,1.2,0.2,1.6,0.7c0.5,0.5,0.7,1,0.7,1.6C68.3,3,68,3.5,67.5,4c-0.5,0.5-1,0.7-1.6,0.7c-0.7,0-1.2-0.2-1.7-0.7
		c-0.5-0.5-0.7-1-0.7-1.7c0-0.6,0.2-1.2,0.7-1.6C64.7,0.2,65.3,0,65.9,0L65.9,0z M58.9,7.8c0.6,0,1.2,0.2,1.6,0.7
		c0.5,0.5,0.7,1,0.7,1.6c0,0.6-0.2,1.2-0.7,1.7c-0.5,0.5-1,0.7-1.6,0.7c-0.6,0-1.2-0.2-1.7-0.7c-0.5-0.5-0.7-1-0.7-1.7
		c0-0.6,0.2-1.2,0.7-1.6C57.7,8,58.2,7.8,58.9,7.8L58.9,7.8z M77.7,0c0.6,0,1.2,0.2,1.6,0.7s0.7,1,0.7,1.6C80,3,79.8,3.5,79.4,4
		c-0.5,0.5-1,0.7-1.6,0.7c-0.6,0-1.2-0.2-1.6-0.7c-0.5-0.5-0.7-1-0.7-1.7c0-0.6,0.2-1.2,0.7-1.6C76.5,0.2,77.1,0,77.7,0L77.7,0z
		 M84.8,7.8c0.6,0,1.2,0.2,1.6,0.7c0.5,0.5,0.7,1,0.7,1.6c0,0.6-0.2,1.2-0.7,1.7c-0.5,0.5-1,0.7-1.6,0.7c-0.6,0-1.2-0.2-1.7-0.7
		c-0.5-0.5-0.7-1-0.7-1.7c0-0.6,0.2-1.2,0.7-1.6C83.6,8,84.1,7.8,84.8,7.8L84.8,7.8z M77.7,15.6c0.6,0,1.2,0.2,1.6,0.7
		s0.7,1,0.7,1.6c0,0.6-0.2,1.2-0.7,1.7s-1,0.7-1.6,0.7c-0.6,0-1.2-0.2-1.6-0.7c-0.5-0.5-0.7-1-0.7-1.7c0-0.6,0.2-1.2,0.7-1.6
		C76.5,15.8,77.1,15.6,77.7,15.6L77.7,15.6z M84.8,15.6c0.6,0,1.2,0.2,1.6,0.7c0.5,0.5,0.7,1,0.7,1.6c0,0.6-0.2,1.2-0.7,1.7
		c-0.5,0.5-1,0.7-1.6,0.7c-0.6,0-1.2-0.2-1.7-0.7c-0.5-0.5-0.7-1-0.7-1.7c0-0.6,0.2-1.2,0.7-1.6C83.6,15.8,84.1,15.6,84.8,15.6
		L84.8,15.6z M103.6,0c0.6,0,1.2,0.2,1.6,0.7c0.5,0.5,0.7,1,0.7,1.6c0,0.6-0.2,1.2-0.7,1.7c-0.5,0.5-1,0.7-1.6,0.7
		c-0.6,0-1.2-0.2-1.7-0.7c-0.5-0.5-0.7-1-0.7-1.7c0-0.6,0.2-1.2,0.7-1.6S103,0,103.6,0L103.6,0z M96.6,7.8c0.6,0,1.2,0.2,1.6,0.7
		c0.5,0.5,0.7,1,0.7,1.6c0,0.6-0.2,1.2-0.7,1.7c-0.5,0.5-1,0.7-1.6,0.7c-0.6,0-1.2-0.2-1.6-0.7c-0.5-0.5-0.7-1-0.7-1.7
		c0-0.6,0.2-1.2,0.7-1.6C95.4,8,95.9,7.8,96.6,7.8L96.6,7.8z M103.6,7.8c0.6,0,1.2,0.2,1.6,0.7c0.5,0.5,0.7,1,0.7,1.6
		c0,0.6-0.2,1.2-0.7,1.7c-0.5,0.5-1,0.7-1.6,0.7c-0.6,0-1.2-0.2-1.7-0.7c-0.5-0.5-0.7-1-0.7-1.7c0-0.6,0.2-1.2,0.7-1.6
		S103,7.8,103.6,7.8L103.6,7.8z M103.6,15.6c0.6,0,1.2,0.2,1.6,0.7c0.5,0.5,0.7,1,0.7,1.6c0,0.6-0.2,1.2-0.7,1.7
		c-0.5,0.5-1,0.7-1.6,0.7c-0.6,0-1.2-0.2-1.7-0.7s-0.7-1-0.7-1.7c0-0.6,0.2-1.2,0.7-1.6S103,15.6,103.6,15.6L103.6,15.6z M115.4,0
		c0.6,0,1.2,0.2,1.6,0.7s0.7,1,0.7,1.6c0,0.6-0.2,1.2-0.7,1.7c-0.5,0.5-1,0.7-1.6,0.7s-1.2-0.2-1.6-0.7c-0.5-0.5-0.7-1-0.7-1.7
		c0-0.6,0.3-1.2,0.7-1.6C114.2,0.2,114.8,0,115.4,0L115.4,0z M122.5,7.8c0.6,0,1.2,0.2,1.6,0.7c0.5,0.5,0.7,1,0.7,1.6
		c0,0.6-0.2,1.2-0.7,1.7c-0.5,0.5-1,0.7-1.6,0.7c-0.6,0-1.2-0.2-1.7-0.7c-0.5-0.5-0.7-1-0.7-1.7c0-0.6,0.2-1.2,0.7-1.6
		C121.3,8,121.8,7.8,122.5,7.8L122.5,7.8z M115.4,15.6c0.6,0,1.2,0.2,1.6,0.7s0.7,1,0.7,1.6c0,0.6-0.2,1.2-0.7,1.7s-1,0.7-1.6,0.7
		s-1.2-0.2-1.6-0.7c-0.5-0.5-0.7-1-0.7-1.7c0-0.6,0.3-1.2,0.7-1.6C114.2,15.8,114.8,15.6,115.4,15.6L115.4,15.6z M134.3,0
		c0.6,0,1.2,0.2,1.6,0.7s0.7,1,0.7,1.6c0,0.6-0.2,1.2-0.7,1.7c-0.5,0.5-1,0.7-1.6,0.7c-0.6,0-1.2-0.2-1.6-0.7
		c-0.5-0.5-0.7-1-0.7-1.7c0-0.6,0.2-1.2,0.7-1.6C133,0.2,133.6,0,134.3,0L134.3,0z M141.3,0c0.6,0,1.2,0.2,1.6,0.7s0.7,1,0.7,1.6
		c0,0.6-0.2,1.2-0.7,1.7c-0.5,0.5-1,0.7-1.6,0.7c-0.6,0-1.2-0.2-1.7-0.7c-0.5-0.5-0.7-1-0.7-1.7c0-0.6,0.2-1.2,0.7-1.6
		S140.7,0,141.3,0L141.3,0z M141.3,7.8c0.6,0,1.2,0.2,1.6,0.7s0.7,1,0.7,1.6c0,0.6-0.2,1.2-0.7,1.7c-0.5,0.5-1,0.7-1.6,0.7
		c-0.6,0-1.2-0.2-1.7-0.7c-0.5-0.5-0.7-1-0.7-1.7c0-0.6,0.2-1.2,0.7-1.6S140.7,7.8,141.3,7.8L141.3,7.8z M160.2,0
		c0.6,0,1.2,0.2,1.6,0.7c0.5,0.5,0.7,1,0.7,1.6c0,0.6-0.2,1.2-0.7,1.7c-0.5,0.5-1,0.7-1.6,0.7c-0.6,0-1.2-0.2-1.7-0.7
		c-0.5-0.5-0.7-1-0.7-1.7c0-0.6,0.2-1.2,0.7-1.6C159,0.2,159.5,0,160.2,0L160.2,0z M153.1,7.8c0.6,0,1.2,0.2,1.6,0.7
		c0.5,0.5,0.7,1,0.7,1.6c0,0.6-0.2,1.2-0.7,1.7c-0.5,0.5-1,0.7-1.6,0.7s-1.2-0.2-1.6-0.7c-0.5-0.5-0.7-1-0.7-1.7
		c0-0.6,0.2-1.2,0.7-1.6S152.5,7.8,153.1,7.8L153.1,7.8z M153.1,15.6c0.6,0,1.2,0.2,1.6,0.7c0.5,0.5,0.7,1,0.7,1.6
		c0,0.6-0.2,1.2-0.7,1.7c-0.5,0.5-1,0.7-1.6,0.7s-1.2-0.2-1.6-0.7s-0.7-1-0.7-1.7c0-0.6,0.2-1.2,0.7-1.6S152.5,15.6,153.1,15.6
		L153.1,15.6z M179,0c0.6,0,1.2,0.2,1.6,0.7c0.5,0.5,0.7,1,0.7,1.6c0,0.6-0.2,1.2-0.7,1.7c-0.5,0.5-1,0.7-1.6,0.7
		c-0.6,0-1.2-0.2-1.7-0.7c-0.5-0.5-0.7-1-0.7-1.7c0-0.6,0.2-1.2,0.7-1.6C177.8,0.2,178.4,0,179,0L179,0z M172,7.8
		c0.6,0,1.2,0.2,1.6,0.7c0.5,0.5,0.7,1,0.7,1.6c0,0.6-0.2,1.2-0.7,1.7c-0.5,0.5-1,0.7-1.6,0.7c-0.7,0-1.2-0.2-1.7-0.7
		c-0.5-0.5-0.7-1-0.7-1.7c0-0.6,0.2-1.2,0.7-1.6C170.8,8,171.3,7.8,172,7.8L172,7.8z M179,7.8c0.6,0,1.2,0.2,1.6,0.7
		c0.5,0.5,0.7,1,0.7,1.6c0,0.6-0.2,1.2-0.7,1.7c-0.5,0.5-1,0.7-1.6,0.7c-0.6,0-1.2-0.2-1.7-0.7c-0.5-0.5-0.7-1-0.7-1.7
		c0-0.6,0.2-1.2,0.7-1.6C177.8,8,178.4,7.8,179,7.8L179,7.8z M172,15.6c0.6,0,1.2,0.2,1.6,0.7c0.5,0.5,0.7,1,0.7,1.6
		c0,0.6-0.2,1.2-0.7,1.7c-0.5,0.5-1,0.7-1.6,0.7c-0.7,0-1.2-0.2-1.7-0.7c-0.5-0.5-0.7-1-0.7-1.7c0-0.6,0.2-1.2,0.7-1.6
		C170.8,15.8,171.3,15.6,172,15.6L172,15.6z M197.9,0c0.6,0,1.2,0.2,1.6,0.7s0.7,1,0.7,1.6c0,0.6-0.2,1.2-0.7,1.7
		c-0.5,0.5-1,0.7-1.6,0.7s-1.2-0.2-1.6-0.7c-0.5-0.5-0.7-1-0.7-1.7c0-0.6,0.2-1.2,0.7-1.6C196.6,0.2,197.2,0,197.9,0L197.9,0z
		 M190.8,7.8c0.6,0,1.2,0.2,1.6,0.7c0.5,0.5,0.7,1,0.7,1.6c0,0.6-0.2,1.2-0.7,1.7c-0.5,0.5-1,0.7-1.6,0.7c-0.7,0-1.2-0.2-1.7-0.7
		c-0.5-0.5-0.7-1-0.7-1.7c0-0.6,0.2-1.2,0.7-1.6C189.6,8,190.2,7.8,190.8,7.8L190.8,7.8z M197.9,7.8c0.6,0,1.2,0.2,1.6,0.7
		s0.7,1,0.7,1.6c0,0.6-0.2,1.2-0.7,1.7c-0.5,0.5-1,0.7-1.6,0.7s-1.2-0.2-1.6-0.7c-0.5-0.5-0.7-1-0.7-1.7c0-0.6,0.2-1.2,0.7-1.6
		C196.7,8,197.2,7.8,197.9,7.8L197.9,7.8z M197.9,15.6c0.6,0,1.2,0.2,1.6,0.7s0.7,1,0.7,1.6c0,0.6-0.2,1.2-0.7,1.7s-1,0.7-1.6,0.7
		s-1.2-0.2-1.6-0.7c-0.5-0.5-0.7-1-0.7-1.7c0-0.6,0.2-1.2,0.7-1.6C196.6,15.8,197.2,15.6,197.9,15.6L197.9,15.6z M209.7,0
		c0.6,0,1.2,0.2,1.6,0.7s0.7,1,0.7,1.6c0,0.6-0.2,1.2-0.7,1.7c-0.5,0.5-1,0.7-1.6,0.7c-0.7,0-1.2-0.2-1.7-0.7
		c-0.5-0.5-0.7-1-0.7-1.7c0-0.6,0.2-1.2,0.7-1.6S209,0,209.7,0L209.7,0z M216.7,7.8c0.6,0,1.2,0.2,1.6,0.7c0.5,0.5,0.7,1,0.7,1.6
		c0,0.6-0.2,1.2-0.7,1.7c-0.5,0.5-1,0.7-1.6,0.7c-0.6,0-1.2-0.2-1.6-0.7c-0.5-0.5-0.7-1-0.7-1.7c0-0.6,0.2-1.2,0.7-1.6
		C215.5,8,216.1,7.8,216.7,7.8L216.7,7.8z M209.7,15.6c0.6,0,1.2,0.2,1.6,0.7s0.7,1,0.7,1.6c0,0.6-0.2,1.2-0.7,1.7s-1,0.7-1.6,0.7
		c-0.7,0-1.2-0.2-1.7-0.7s-0.7-1-0.7-1.7c0-0.6,0.2-1.2,0.7-1.6S209,15.6,209.7,15.6L209.7,15.6z M254.4,0c0.6,0,1.2,0.2,1.6,0.7
		c0.5,0.5,0.7,1,0.7,1.6c0,0.6-0.2,1.2-0.7,1.7c-0.5,0.5-1,0.7-1.6,0.7c-0.6,0-1.2-0.2-1.6-0.7c-0.5-0.5-0.7-1-0.7-1.7
		c0-0.6,0.2-1.2,0.7-1.6C253.2,0.2,253.7,0,254.4,0L254.4,0z M247.4,7.8c0.6,0,1.2,0.2,1.6,0.7c0.5,0.5,0.7,1,0.7,1.6
		c0,0.6-0.2,1.2-0.7,1.7c-0.5,0.5-1,0.7-1.6,0.7c-0.7,0-1.2-0.2-1.7-0.7c-0.5-0.5-0.7-1-0.7-1.7c0-0.6,0.2-1.2,0.7-1.6
		C246.1,8,246.7,7.8,247.4,7.8L247.4,7.8z M254.4,7.8c0.6,0,1.2,0.2,1.6,0.7c0.5,0.5,0.7,1,0.7,1.6c0,0.6-0.2,1.2-0.7,1.7
		c-0.5,0.5-1,0.7-1.6,0.7c-0.6,0-1.2-0.2-1.6-0.7c-0.5-0.5-0.7-1-0.7-1.7c0-0.6,0.2-1.2,0.7-1.6S253.7,7.8,254.4,7.8L254.4,7.8z
		 M247.4,15.6c0.6,0,1.2,0.2,1.6,0.7c0.5,0.5,0.7,1,0.7,1.6c0,0.6-0.2,1.2-0.7,1.7c-0.5,0.5-1,0.7-1.6,0.7c-0.7,0-1.2-0.2-1.7-0.7
		c-0.5-0.5-0.7-1-0.7-1.7c0-0.6,0.2-1.2,0.7-1.6C246.1,15.8,246.7,15.6,247.4,15.6L247.4,15.6z M266.2,0c0.6,0,1.2,0.2,1.6,0.7
		c0.5,0.5,0.7,1,0.7,1.6c0,0.6-0.2,1.2-0.7,1.7c-0.5,0.5-1,0.7-1.6,0.7c-0.7,0-1.2-0.2-1.7-0.7c-0.5-0.5-0.7-1-0.7-1.7
		c0-0.6,0.2-1.2,0.7-1.6S265.5,0,266.2,0L266.2,0z M285,0c0.6,0,1.2,0.2,1.6,0.7c0.5,0.5,0.7,1,0.7,1.6c0,0.6-0.2,1.2-0.7,1.7
		c-0.5,0.5-1,0.7-1.6,0.7c-0.6,0-1.2-0.2-1.7-0.7c-0.5-0.5-0.7-1-0.7-1.7c0-0.6,0.2-1.2,0.7-1.6C283.8,0.2,284.4,0,285,0L285,0z
		 M285,15.6c0.6,0,1.2,0.2,1.6,0.7c0.5,0.5,0.7,1,0.7,1.6c0,0.6-0.2,1.2-0.7,1.7c-0.5,0.5-1,0.7-1.6,0.7c-0.6,0-1.2-0.2-1.7-0.7
		c-0.5-0.5-0.7-1-0.7-1.7c0-0.6,0.2-1.2,0.7-1.6C283.8,15.8,284.4,15.6,285,15.6L285,15.6z M311,0c0.6,0,1.2,0.2,1.6,0.7
		c0.5,0.5,0.7,1,0.7,1.6c0,0.6-0.2,1.2-0.7,1.7c-0.5,0.5-1,0.7-1.6,0.7c-0.7,0-1.2-0.2-1.7-0.7c-0.5-0.5-0.7-1-0.7-1.7
		c0-0.6,0.2-1.2,0.7-1.6C309.7,0.2,310.3,0,311,0L311,0z M303.9,7.8c0.6,0,1.2,0.2,1.6,0.7c0.5,0.5,0.7,1,0.7,1.6
		c0,0.6-0.2,1.2-0.7,1.7c-0.5,0.5-1,0.7-1.6,0.7c-0.6,0-1.2-0.2-1.7-0.7c-0.5-0.5-0.7-1-0.7-1.7c0-0.6,0.2-1.2,0.7-1.6
		C302.7,8,303.2,7.8,303.9,7.8L303.9,7.8z M311,7.8c0.6,0,1.2,0.2,1.6,0.7c0.5,0.5,0.7,1,0.7,1.6c0,0.6-0.2,1.2-0.7,1.7
		c-0.5,0.5-1,0.7-1.6,0.7c-0.7,0-1.2-0.2-1.7-0.7c-0.5-0.5-0.7-1-0.7-1.7c0-0.6,0.2-1.2,0.7-1.6C309.7,8,310.3,7.8,311,7.8L311,7.8z
		 M303.9,15.6c0.6,0,1.2,0.2,1.6,0.7c0.5,0.5,0.7,1,0.7,1.6c0,0.6-0.2,1.2-0.7,1.7c-0.5,0.5-1,0.7-1.6,0.7c-0.6,0-1.2-0.2-1.7-0.7
		c-0.5-0.5-0.7-1-0.7-1.7c0-0.6,0.2-1.2,0.7-1.6C302.7,15.8,303.2,15.6,303.9,15.6L303.9,15.6z M329.8,0c0.6,0,1.2,0.2,1.6,0.7
		s0.7,1,0.7,1.6c0,0.6-0.2,1.2-0.7,1.7c-0.5,0.5-1,0.7-1.6,0.7c-0.7,0-1.2-0.2-1.7-0.7c-0.5-0.5-0.7-1-0.7-1.7
		c0-0.6,0.2-1.2,0.7-1.6S329.1,0,329.8,0L329.8,0z M322.7,7.8c0.6,0,1.2,0.2,1.6,0.7s0.7,1,0.7,1.6c0,0.6-0.2,1.2-0.7,1.7
		c-0.5,0.5-1,0.7-1.6,0.7c-0.6,0-1.2-0.2-1.7-0.7c-0.5-0.5-0.7-1-0.7-1.7c0-0.6,0.2-1.2,0.7-1.6S322.1,7.8,322.7,7.8L322.7,7.8z
		 M341.6,0c0.6,0,1.2,0.2,1.6,0.7c0.5,0.5,0.7,1,0.7,1.6c0,0.6-0.2,1.2-0.7,1.7c-0.5,0.5-1,0.7-1.6,0.7c-0.6,0-1.2-0.2-1.7-0.7
		c-0.5-0.5-0.7-1-0.7-1.7c0-0.6,0.2-1.2,0.7-1.6C340.4,0.2,340.9,0,341.6,0L341.6,0z M341.6,7.8c0.6,0,1.2,0.2,1.6,0.7
		c0.5,0.5,0.7,1,0.7,1.6c0,0.6-0.2,1.2-0.7,1.7c-0.5,0.5-1,0.7-1.6,0.7c-0.6,0-1.2-0.2-1.7-0.7c-0.5-0.5-0.7-1-0.7-1.7
		c0-0.6,0.2-1.2,0.7-1.6C340.4,8,340.9,7.8,341.6,7.8L341.6,7.8z M341.6,15.6c0.6,0,1.2,0.2,1.6,0.7c0.5,0.5,0.7,1,0.7,1.6
		c0,0.6-0.2,1.2-0.7,1.7c-0.5,0.5-1,0.7-1.6,0.7c-0.6,0-1.2-0.2-1.7-0.7c-0.5-0.5-0.7-1-0.7-1.7c0-0.6,0.2-1.2,0.7-1.6
		C340.4,15.8,340.9,15.6,341.6,15.6L341.6,15.6z M367.5,0c0.6,0,1.2,0.2,1.6,0.7c0.5,0.5,0.7,1,0.7,1.6c0,0.6-0.2,1.2-0.7,1.7
		c-0.5,0.5-1,0.7-1.6,0.7c-0.7,0-1.2-0.2-1.7-0.7c-0.5-0.5-0.7-1-0.7-1.7c0-0.6,0.2-1.2,0.7-1.6C366.3,0.2,366.8,0,367.5,0L367.5,0z
		 M360.4,7.8c0.6,0,1.2,0.2,1.6,0.7s0.7,1,0.7,1.6c0,0.6-0.2,1.2-0.7,1.7c-0.5,0.5-1,0.7-1.6,0.7c-0.6,0-1.2-0.2-1.7-0.7
		c-0.5-0.5-0.7-1-0.7-1.7c0-0.6,0.2-1.2,0.7-1.6C359.2,8,359.8,7.8,360.4,7.8L360.4,7.8z M367.5,7.8c0.6,0,1.2,0.2,1.6,0.7
		c0.5,0.5,0.7,1,0.7,1.6c0,0.6-0.2,1.2-0.7,1.7c-0.5,0.5-1,0.7-1.6,0.7c-0.7,0-1.2-0.2-1.7-0.7c-0.5-0.5-0.7-1-0.7-1.7
		c0-0.6,0.2-1.2,0.7-1.6C366.3,8,366.8,7.8,367.5,7.8L367.5,7.8z M360.4,15.6c0.6,0,1.2,0.2,1.6,0.7s0.7,1,0.7,1.6
		c0,0.6-0.2,1.2-0.7,1.7s-1,0.7-1.6,0.7c-0.6,0-1.2-0.2-1.7-0.7s-0.7-1-0.7-1.7c0-0.6,0.2-1.2,0.7-1.6S359.8,15.6,360.4,15.6
		L360.4,15.6z M367.5,15.6c0.6,0,1.2,0.2,1.6,0.7c0.5,0.5,0.7,1,0.7,1.6s-0.3,1.2-0.7,1.6c-0.4,0.5-1,0.7-1.6,0.7
		c-0.6,0-1.2-0.2-1.6-0.7c-0.5-0.5-0.7-1-0.7-1.6s0.2-1.2,0.7-1.6C366.3,15.9,366.8,15.6,367.5,15.6L367.5,15.6z"/>
	<path fill="#161717" d="M379.3,0c0.6,0,1.2,0.2,1.6,0.7s0.7,1,0.7,1.6c0,0.6-0.2,1.2-0.7,1.7c-0.5,0.5-1,0.7-1.6,0.7
		c-0.6,0-1.2-0.2-1.7-0.7c-0.5-0.5-0.7-1-0.7-1.7c0-0.6,0.2-1.2,0.7-1.6S378.6,0,379.3,0L379.3,0z M386.3,0c0.6,0,1.2,0.2,1.6,0.7
		c0.5,0.5,0.7,1,0.7,1.6c0,0.6-0.2,1.2-0.7,1.7c-0.5,0.5-1,0.7-1.6,0.7c-0.7,0-1.2-0.2-1.7-0.7c-0.5-0.5-0.7-1-0.7-1.7
		c0-0.6,0.2-1.2,0.7-1.6S385.7,0,386.3,0L386.3,0z M386.3,7.8c0.6,0,1.2,0.2,1.6,0.7c0.5,0.5,0.7,1,0.7,1.6c0,0.6-0.2,1.2-0.7,1.7
		c-0.5,0.5-1,0.7-1.6,0.7c-0.7,0-1.2-0.2-1.7-0.7c-0.5-0.5-0.7-1-0.7-1.7c0-0.6,0.2-1.2,0.7-1.6S385.7,7.8,386.3,7.8L386.3,7.8z
		 M379.3,15.6c0.6,0,1.2,0.2,1.6,0.7s0.7,1,0.7,1.6c0,0.6-0.2,1.2-0.7,1.7s-1,0.7-1.6,0.7c-0.6,0-1.2-0.2-1.7-0.7s-0.7-1-0.7-1.7
		c0-0.6,0.2-1.2,0.7-1.6S378.6,15.6,379.3,15.6L379.3,15.6z M405.2,0c0.6,0,1.2,0.2,1.6,0.7c0.5,0.5,0.7,1,0.7,1.6
		c0,0.6-0.2,1.2-0.7,1.7c-0.5,0.5-1,0.7-1.6,0.7c-0.6,0-1.2-0.2-1.7-0.7c-0.5-0.5-0.7-1-0.7-1.7c0-0.6,0.2-1.2,0.7-1.6
		S404.5,0,405.2,0L405.2,0z M398.1,7.8c0.6,0,1.2,0.2,1.6,0.7c0.5,0.5,0.7,1,0.7,1.6c0,0.6-0.2,1.2-0.7,1.7c-0.5,0.5-1,0.7-1.6,0.7
		c-0.6,0-1.2-0.2-1.6-0.7c-0.5-0.5-0.7-1-0.7-1.7c0-0.6,0.2-1.2,0.7-1.6C396.9,8,397.5,7.8,398.1,7.8L398.1,7.8z M398.1,15.6
		c0.6,0,1.2,0.2,1.6,0.7c0.5,0.5,0.7,1,0.7,1.6c0,0.6-0.2,1.2-0.7,1.7c-0.5,0.5-1,0.7-1.6,0.7c-0.6,0-1.2-0.2-1.6-0.7
		c-0.5-0.5-0.7-1-0.7-1.7c0-0.6,0.2-1.2,0.7-1.6C396.9,15.8,397.5,15.6,398.1,15.6L398.1,15.6z M405.2,15.6c0.6,0,1.2,0.2,1.6,0.7
		c0.5,0.5,0.7,1,0.7,1.6c0,0.6-0.2,1.2-0.7,1.7c-0.5,0.5-1,0.7-1.6,0.7c-0.6,0-1.2-0.2-1.7-0.7s-0.7-1-0.7-1.7
		c0-0.6,0.2-1.2,0.7-1.6S404.5,15.6,405.2,15.6L405.2,15.6z M417,0c0.6,0,1.2,0.2,1.6,0.7s0.7,1,0.7,1.6c0,0.6-0.2,1.2-0.7,1.7
		c-0.5,0.5-1,0.7-1.6,0.7s-1.2-0.2-1.6-0.7c-0.5-0.5-0.7-1-0.7-1.7c0-0.6,0.2-1.2,0.7-1.6C415.8,0.2,416.3,0,417,0L417,0z M417,7.8
		c0.6,0,1.2,0.2,1.6,0.7c0.5,0.5,0.7,1,0.7,1.6c0,0.6-0.2,1.2-0.7,1.6c-0.5,0.5-1,0.7-1.6,0.7c-0.6,0-1.2-0.2-1.7-0.7
		c-0.5-0.5-0.7-1-0.7-1.6c0-0.6,0.2-1.2,0.7-1.6S416.3,7.8,417,7.8L417,7.8z M424,7.8c0.6,0,1.2,0.2,1.6,0.7c0.5,0.5,0.7,1,0.7,1.6
		c0,0.6-0.2,1.2-0.7,1.7c-0.5,0.5-1,0.7-1.6,0.7c-0.6,0-1.2-0.2-1.7-0.7c-0.5-0.5-0.7-1-0.7-1.7c0-0.6,0.2-1.2,0.7-1.6
		C422.8,8,423.4,7.8,424,7.8L424,7.8z M461.7,0c0.6,0,1.2,0.2,1.6,0.7s0.7,1,0.7,1.6c0,0.6-0.2,1.2-0.7,1.7c-0.5,0.5-1,0.7-1.6,0.7
		c-0.6,0-1.2-0.2-1.7-0.7c-0.5-0.5-0.7-1-0.7-1.7c0-0.6,0.2-1.2,0.7-1.6S461.1,0,461.7,0L461.7,0z M454.7,7.8c0.6,0,1.2,0.2,1.6,0.7
		c0.5,0.5,0.7,1,0.7,1.6c0,0.6-0.2,1.2-0.7,1.7c-0.5,0.5-1,0.7-1.6,0.7c-0.6,0-1.2-0.2-1.6-0.7c-0.5-0.5-0.7-1-0.7-1.7
		c0-0.6,0.2-1.2,0.7-1.6C453.5,8,454,7.8,454.7,7.8L454.7,7.8z M454.7,15.6c0.6,0,1.2,0.2,1.6,0.7c0.5,0.5,0.7,1,0.7,1.6
		c0,0.6-0.2,1.2-0.7,1.7c-0.5,0.5-1,0.7-1.6,0.7c-0.6,0-1.2-0.2-1.6-0.7c-0.5-0.5-0.7-1-0.7-1.7c0-0.6,0.2-1.2,0.7-1.6
		C453.5,15.8,454,15.6,454.7,15.6L454.7,15.6z M480.6,7.8c0.6,0,1.2,0.2,1.6,0.6c0.5,0.5,0.7,1,0.7,1.7c0,0.6-0.2,1.2-0.7,1.6
		c-0.5,0.5-1,0.7-1.6,0.7c-0.6,0-1.2-0.2-1.7-0.7c-0.5-0.5-0.7-1-0.7-1.6c0-0.6,0.2-1.2,0.7-1.7C479.4,8,479.9,7.8,480.6,7.8
		L480.6,7.8z M473.5,0c0.6,0,1.2,0.2,1.6,0.7s0.7,1,0.7,1.6s-0.2,1.2-0.7,1.7s-1,0.7-1.6,0.7s-1.2-0.2-1.6-0.7s-0.7-1-0.7-1.7
		s0.2-1.2,0.7-1.6S472.8,0,473.5,0L473.5,0z M473.5,15.6c0.6,0,1.2,0.3,1.6,0.7s0.7,1,0.7,1.6c0,0.6-0.2,1.2-0.7,1.6s-1,0.7-1.6,0.7
		s-1.2-0.2-1.6-0.7s-0.7-1-0.7-1.6c0-0.6,0.2-1.2,0.7-1.6S472.8,15.6,473.5,15.6L473.5,15.6z M473.5,7.8c0.6,0,1.2,0.2,1.6,0.7
		c0.5,0.5,0.7,1,0.7,1.6c0,0.6-0.2,1.2-0.7,1.6c-0.5,0.5-1,0.7-1.6,0.7c-0.6,0-1.2-0.2-1.7-0.7c-0.5-0.5-0.7-1-0.7-1.6
		c0-0.6,0.2-1.2,0.7-1.6S472.9,7.8,473.5,7.8L473.5,7.8z M492.4,0c0.6,0,1.2,0.2,1.6,0.7s0.7,1,0.7,1.6c0,0.6-0.2,1.2-0.7,1.7
		c-0.5,0.5-1,0.7-1.6,0.7c-0.7,0-1.2-0.2-1.7-0.7c-0.5-0.5-0.7-1-0.7-1.7c0-0.6,0.2-1.2,0.7-1.6S491.7,0,492.4,0L492.4,0z
		 M499.4,7.8c0.6,0,1.2,0.2,1.6,0.7s0.7,1,0.7,1.6c0,0.6-0.2,1.2-0.7,1.7c-0.5,0.5-1,0.7-1.6,0.7c-0.6,0-1.2-0.2-1.7-0.7
		c-0.5-0.5-0.7-1-0.7-1.7c0-0.6,0.2-1.2,0.7-1.6C498.2,8,498.8,7.8,499.4,7.8L499.4,7.8z M511.2,0c0.6,0,1.2,0.2,1.6,0.7
		c0.5,0.5,0.7,1,0.7,1.6c0,0.6-0.2,1.2-0.7,1.7c-0.5,0.5-1,0.7-1.6,0.7c-0.7,0-1.2-0.2-1.7-0.7c-0.5-0.5-0.7-1-0.7-1.7
		c0-0.6,0.2-1.2,0.7-1.6C510,0.2,510.5,0,511.2,0L511.2,0z M518.3,0c0.6,0,1.2,0.2,1.6,0.7c0.5,0.5,0.7,1,0.7,1.6
		c0,0.6-0.2,1.2-0.7,1.7c-0.5,0.5-1,0.7-1.6,0.7S517,4.4,516.6,4c-0.5-0.5-0.7-1-0.7-1.7c0-0.6,0.2-1.2,0.7-1.6
		C517,0.2,517.6,0,518.3,0L518.3,0z M518.3,7.8c0.6,0,1.2,0.2,1.6,0.7c0.5,0.5,0.7,1,0.7,1.6c0,0.6-0.2,1.2-0.7,1.7
		c-0.5,0.5-1,0.7-1.6,0.7s-1.2-0.2-1.6-0.7c-0.5-0.5-0.7-1-0.7-1.7c0-0.6,0.2-1.2,0.7-1.6C517.1,8,517.6,7.8,518.3,7.8L518.3,7.8z
		 M537.1,0c0.6,0,1.2,0.2,1.6,0.7c0.5,0.5,0.7,1,0.7,1.6c0,0.6-0.2,1.2-0.7,1.7c-0.5,0.5-1,0.7-1.6,0.7s-1.2-0.2-1.6-0.7
		c-0.5-0.5-0.7-1-0.7-1.7c0-0.6,0.2-1.2,0.7-1.6C535.9,0.2,536.5,0,537.1,0L537.1,0z M530.1,7.8c0.6,0,1.2,0.2,1.6,0.7
		c0.5,0.5,0.7,1,0.7,1.6c0,0.6-0.2,1.2-0.7,1.7c-0.5,0.5-1,0.7-1.6,0.7c-0.7,0-1.2-0.2-1.7-0.7c-0.5-0.5-0.7-1-0.7-1.7
		c0-0.6,0.2-1.2,0.7-1.6C528.9,8,529.4,7.8,530.1,7.8L530.1,7.8z M530.1,15.6c0.6,0,1.2,0.2,1.6,0.7c0.5,0.5,0.7,1,0.7,1.6
		c0,0.6-0.2,1.2-0.7,1.7c-0.5,0.5-1,0.7-1.6,0.7c-0.7,0-1.2-0.2-1.7-0.7c-0.5-0.5-0.7-1-0.7-1.7c0-0.6,0.2-1.2,0.7-1.6
		C528.9,15.8,529.4,15.6,530.1,15.6L530.1,15.6z M555.9,0c0.6,0,1.2,0.2,1.6,0.7s0.7,1,0.7,1.6c0,0.6-0.2,1.2-0.7,1.7
		c-0.5,0.5-1,0.7-1.6,0.7c-0.6,0-1.2-0.2-1.6-0.7c-0.5-0.5-0.7-1-0.7-1.7c0-0.6,0.3-1.2,0.7-1.6C554.7,0.2,555.3,0,555.9,0L555.9,0z
		 M548.9,7.8c0.6,0,1.2,0.2,1.6,0.7s0.7,1,0.7,1.6c0,0.6-0.3,1.2-0.7,1.7c-0.5,0.5-1,0.7-1.6,0.7c-0.7,0-1.2-0.2-1.7-0.7
		c-0.5-0.5-0.7-1-0.7-1.7c0-0.6,0.2-1.2,0.7-1.6S548.3,7.8,548.9,7.8L548.9,7.8z M555.9,7.8c0.6,0,1.2,0.2,1.6,0.7s0.7,1,0.7,1.6
		c0,0.6-0.2,1.2-0.7,1.7c-0.5,0.5-1,0.7-1.6,0.7c-0.6,0-1.2-0.2-1.6-0.7c-0.5-0.5-0.7-1-0.7-1.7c0-0.6,0.3-1.2,0.7-1.6
		S555.3,7.8,555.9,7.8L555.9,7.8z M548.9,15.6c0.6,0,1.2,0.2,1.6,0.7s0.7,1,0.7,1.6c0,0.6-0.3,1.2-0.7,1.7s-1,0.7-1.6,0.7
		c-0.7,0-1.2-0.2-1.7-0.7s-0.7-1-0.7-1.7c0-0.6,0.2-1.2,0.7-1.6S548.2,15.6,548.9,15.6L548.9,15.6z M574.8,0c0.6,0,1.2,0.2,1.6,0.7
		c0.5,0.5,0.7,1,0.7,1.6c0,0.6-0.2,1.2-0.7,1.7c-0.5,0.5-1,0.7-1.6,0.7s-1.2-0.2-1.6-0.7c-0.5-0.5-0.7-1-0.7-1.7
		c0-0.6,0.2-1.2,0.7-1.6C573.6,0.2,574.1,0,574.8,0L574.8,0z M567.8,7.8c0.6,0,1.2,0.2,1.6,0.7c0.5,0.5,0.7,1,0.7,1.6
		c0,0.6-0.2,1.2-0.7,1.7c-0.5,0.5-1,0.7-1.6,0.7c-0.7,0-1.2-0.2-1.7-0.7c-0.5-0.5-0.7-1-0.7-1.7c0-0.6,0.2-1.2,0.7-1.6
		C566.5,8,567.1,7.8,567.8,7.8L567.8,7.8z M574.8,7.8c0.6,0,1.2,0.2,1.6,0.7c0.5,0.5,0.7,1,0.7,1.6c0,0.6-0.2,1.2-0.7,1.7
		c-0.5,0.5-1,0.7-1.6,0.7s-1.2-0.2-1.6-0.7c-0.5-0.5-0.7-1-0.7-1.7c0-0.6,0.2-1.2,0.7-1.6C573.6,8,574.1,7.8,574.8,7.8L574.8,7.8z
		 M574.8,15.6c0.6,0,1.2,0.2,1.6,0.7c0.5,0.5,0.7,1,0.7,1.6c0,0.6-0.2,1.2-0.7,1.7c-0.5,0.5-1,0.7-1.6,0.7s-1.2-0.2-1.6-0.7
		c-0.5-0.5-0.7-1-0.7-1.7c0-0.6,0.2-1.2,0.7-1.6C573.6,15.8,574.1,15.6,574.8,15.6L574.8,15.6z M605.4,0c0.6,0,1.2,0.2,1.6,0.7
		c0.5,0.5,0.7,1,0.7,1.6c0,0.6-0.2,1.2-0.7,1.7c-0.5,0.5-1,0.7-1.6,0.7c-0.6,0-1.2-0.2-1.7-0.7c-0.5-0.5-0.7-1-0.7-1.7
		c0-0.6,0.2-1.2,0.7-1.6S604.8,0,605.4,0L605.4,0z M612.5,7.8c0.6,0,1.2,0.2,1.6,0.7s0.7,1,0.7,1.6c0,0.6-0.2,1.2-0.7,1.7
		c-0.5,0.5-1,0.7-1.6,0.7c-0.7,0-1.2-0.2-1.7-0.7c-0.5-0.5-0.7-1-0.7-1.7c0-0.6,0.2-1.2,0.7-1.6S611.9,7.8,612.5,7.8L612.5,7.8z
		 M605.4,15.6c0.6,0,1.2,0.2,1.6,0.7c0.5,0.5,0.7,1,0.7,1.6c0,0.6-0.2,1.2-0.7,1.7c-0.5,0.5-1,0.7-1.6,0.7c-0.6,0-1.2-0.2-1.7-0.7
		s-0.7-1-0.7-1.7c0-0.6,0.2-1.2,0.7-1.6S604.8,15.6,605.4,15.6L605.4,15.6z M631.4,7.8c0.6,0,1.2,0.2,1.6,0.6c0.5,0.5,0.7,1,0.7,1.7
		c0,0.6-0.2,1.2-0.7,1.6c-0.5,0.5-1,0.7-1.6,0.7c-0.7,0-1.2-0.2-1.7-0.7c-0.5-0.5-0.7-1-0.7-1.6c0-0.6,0.2-1.2,0.7-1.7
		C630.1,8,630.7,7.8,631.4,7.8L631.4,7.8z M624.3,0c0.6,0,1.2,0.2,1.6,0.7c0.5,0.5,0.7,1,0.7,1.6s-0.2,1.2-0.7,1.7
		c-0.5,0.5-1,0.7-1.6,0.7c-0.6,0-1.2-0.2-1.7-0.7c-0.5-0.5-0.7-1-0.7-1.7s0.2-1.2,0.7-1.6C623.1,0.3,623.6,0,624.3,0L624.3,0z
		 M624.3,15.6c0.6,0,1.2,0.3,1.6,0.7c0.5,0.5,0.7,1,0.7,1.6c0,0.6-0.2,1.2-0.7,1.6c-0.5,0.5-1,0.7-1.6,0.7c-0.6,0-1.2-0.2-1.7-0.7
		c-0.5-0.5-0.7-1-0.7-1.6c0-0.6,0.2-1.2,0.7-1.6C623.1,15.9,623.6,15.6,624.3,15.6L624.3,15.6z M624.3,7.8c0.6,0,1.2,0.2,1.6,0.7
		c0.5,0.5,0.7,1,0.7,1.6c0,0.6-0.2,1.2-0.7,1.6c-0.5,0.5-1,0.7-1.6,0.7s-1.2-0.2-1.7-0.7c-0.5-0.5-0.6-1-0.6-1.6
		c0-0.6,0.2-1.2,0.6-1.6C623.1,8,623.6,7.8,624.3,7.8L624.3,7.8z M650.2,0c0.6,0,1.2,0.2,1.6,0.7c0.5,0.5,0.7,1,0.7,1.6
		c0,0.6-0.2,1.2-0.7,1.7c-0.5,0.5-1,0.7-1.6,0.7c-0.7,0-1.2-0.2-1.7-0.7c-0.5-0.5-0.7-1-0.7-1.7c0-0.6,0.2-1.2,0.7-1.6
		C649,0.2,649.5,0,650.2,0L650.2,0z M643.1,7.8c0.6,0,1.2,0.2,1.6,0.7s0.7,1,0.7,1.6c0,0.6-0.2,1.2-0.7,1.7c-0.5,0.5-1,0.7-1.6,0.7
		c-0.6,0-1.2-0.2-1.7-0.7c-0.5-0.5-0.7-1-0.7-1.7c0-0.6,0.2-1.2,0.7-1.6C641.9,8,642.5,7.8,643.1,7.8L643.1,7.8z M662,0
		c0.6,0,1.2,0.2,1.6,0.7c0.5,0.5,0.7,1,0.7,1.6c0,0.6-0.2,1.2-0.7,1.7c-0.5,0.5-1,0.7-1.6,0.7c-0.6,0-1.2-0.2-1.7-0.7
		c-0.5-0.5-0.7-1-0.7-1.7c0-0.6,0.2-1.2,0.7-1.6C660.8,0.2,661.3,0,662,0L662,0z M669,7.8c0.6,0,1.2,0.2,1.6,0.7s0.7,1,0.7,1.6
		c0,0.6-0.3,1.2-0.7,1.7c-0.5,0.5-1,0.7-1.6,0.7c-0.7,0-1.2-0.2-1.7-0.7c-0.5-0.5-0.7-1-0.7-1.7c0-0.6,0.2-1.2,0.7-1.6
		S668.4,7.8,669,7.8L669,7.8z M680.8,0c0.6,0,1.2,0.2,1.6,0.7c0.5,0.5,0.7,1,0.7,1.6c0,0.6-0.2,1.2-0.7,1.7c-0.5,0.5-1,0.7-1.6,0.7
		c-0.6,0-1.2-0.2-1.7-0.7c-0.5-0.5-0.7-1-0.7-1.7c0-0.6,0.2-1.2,0.7-1.6C679.6,0.2,680.2,0,680.8,0L680.8,0z M687.9,0
		c0.6,0,1.2,0.2,1.6,0.7c0.5,0.5,0.7,1,0.7,1.6c0,0.6-0.2,1.2-0.7,1.7c-0.5,0.5-1,0.7-1.6,0.7c-0.7,0-1.2-0.2-1.7-0.7
		c-0.5-0.5-0.7-1-0.7-1.7c0-0.6,0.2-1.2,0.7-1.6C686.7,0.2,687.2,0,687.9,0L687.9,0z M687.9,7.8c0.6,0,1.2,0.2,1.6,0.7
		c0.5,0.5,0.7,1,0.7,1.6c0,0.6-0.2,1.2-0.7,1.7c-0.5,0.5-1,0.7-1.6,0.7c-0.7,0-1.2-0.2-1.7-0.7c-0.5-0.5-0.7-1-0.7-1.7
		c0-0.6,0.2-1.2,0.7-1.6C686.7,8,687.2,7.8,687.9,7.8L687.9,7.8z M680.8,15.6c0.6,0,1.2,0.2,1.6,0.7c0.5,0.5,0.7,1,0.7,1.6
		c0,0.6-0.2,1.2-0.7,1.7c-0.5,0.5-1,0.7-1.6,0.7c-0.6,0-1.2-0.2-1.7-0.7c-0.5-0.5-0.7-1-0.7-1.7c0-0.6,0.2-1.2,0.7-1.6
		C679.6,15.8,680.2,15.6,680.8,15.6L680.8,15.6z M706.7,0c0.6,0,1.2,0.2,1.6,0.7c0.5,0.5,0.7,1,0.7,1.6c0,0.6-0.2,1.2-0.7,1.7
		c-0.5,0.5-1,0.7-1.6,0.7c-0.7,0-1.2-0.2-1.7-0.7c-0.5-0.5-0.7-1-0.7-1.7c0-0.6,0.2-1.2,0.7-1.6C705.5,0.2,706.1,0,706.7,0L706.7,0z
		 M699.7,7.8c0.6,0,1.2,0.2,1.6,0.7s0.7,1,0.7,1.6c0,0.6-0.2,1.2-0.7,1.7c-0.5,0.5-1,0.7-1.6,0.7c-0.6,0-1.2-0.2-1.6-0.7
		c-0.5-0.5-0.7-1-0.7-1.7c0-0.6,0.2-1.2,0.7-1.6C698.5,8,699,7.8,699.7,7.8L699.7,7.8z M706.7,7.8c0.6,0,1.2,0.2,1.6,0.7
		c0.5,0.5,0.7,1,0.7,1.6c0,0.6-0.2,1.2-0.7,1.7c-0.5,0.5-1,0.7-1.6,0.7c-0.7,0-1.2-0.2-1.7-0.7c-0.5-0.5-0.7-1-0.7-1.7
		c0-0.6,0.2-1.2,0.7-1.6C705.5,8,706.1,7.8,706.7,7.8L706.7,7.8z M699.7,15.6c0.6,0,1.2,0.2,1.6,0.7s0.7,1,0.7,1.6
		c0,0.6-0.2,1.2-0.7,1.7s-1,0.7-1.6,0.7c-0.6,0-1.2-0.2-1.6-0.7c-0.5-0.5-0.7-1-0.7-1.7c0-0.6,0.2-1.2,0.7-1.6
		C698.5,15.8,699,15.6,699.7,15.6L699.7,15.6z M725.6,0c0.6,0,1.2,0.2,1.6,0.7c0.5,0.5,0.7,1,0.7,1.6c0,0.6-0.2,1.2-0.7,1.7
		c-0.5,0.5-1,0.7-1.6,0.7c-0.6,0-1.2-0.2-1.7-0.7c-0.5-0.5-0.7-1-0.7-1.7c0-0.6,0.2-1.2,0.7-1.6S724.9,0,725.6,0L725.6,0z
		 M718.5,7.8c0.6,0,1.2,0.2,1.6,0.7c0.5,0.5,0.7,1,0.7,1.6c0,0.6-0.2,1.2-0.7,1.7c-0.5,0.5-1,0.7-1.6,0.7s-1.2-0.2-1.6-0.7
		c-0.5-0.5-0.7-1-0.7-1.7c0-0.6,0.2-1.2,0.7-1.6C717.3,8,717.9,7.8,718.5,7.8L718.5,7.8z M744.4,7.8c0.6,0,1.2,0.2,1.6,0.6
		c0.5,0.5,0.7,1,0.7,1.7c0,0.6-0.2,1.2-0.7,1.6c-0.5,0.5-1,0.7-1.6,0.7c-0.6,0-1.2-0.2-1.7-0.7c-0.5-0.5-0.7-1-0.7-1.6
		c0-0.6,0.2-1.2,0.7-1.7C743.2,8,743.8,7.8,744.4,7.8L744.4,7.8z M737.4,0c0.6,0,1.2,0.2,1.6,0.7c0.5,0.5,0.7,1,0.7,1.6
		S739.4,3.5,739,4c-0.5,0.5-1,0.7-1.6,0.7s-1.2-0.2-1.6-0.7c-0.5-0.5-0.7-1-0.7-1.7s0.3-1.2,0.7-1.6C736.1,0.3,736.7,0,737.4,0
		L737.4,0z M737.4,15.6c0.6,0,1.2,0.3,1.6,0.7c0.5,0.5,0.7,1,0.7,1.6c0,0.6-0.2,1.2-0.7,1.6c-0.5,0.5-1,0.7-1.6,0.7
		s-1.2-0.2-1.6-0.7c-0.5-0.5-0.7-1-0.7-1.6c0-0.6,0.3-1.2,0.7-1.6C736.2,15.9,736.7,15.6,737.4,15.6L737.4,15.6z M737.4,7.8
		c0.6,0,1.2,0.2,1.6,0.7c0.5,0.5,0.7,1,0.7,1.6c0,0.6-0.2,1.2-0.7,1.6c-0.5,0.5-1,0.7-1.6,0.7c-0.7,0-1.2-0.2-1.7-0.7
		c-0.5-0.5-0.7-1-0.7-1.6c0-0.6,0.2-1.2,0.7-1.6C736.2,8,736.7,7.8,737.4,7.8L737.4,7.8z M756.2,0c0.6,0,1.2,0.2,1.6,0.7
		s0.7,1,0.7,1.6c0,0.6-0.2,1.2-0.7,1.7c-0.5,0.5-1,0.7-1.6,0.7c-0.6,0-1.2-0.2-1.6-0.7c-0.5-0.5-0.7-1-0.7-1.7
		c0-0.6,0.2-1.2,0.7-1.6C755,0.2,755.6,0,756.2,0L756.2,0z M763.3,7.8c0.6,0,1.2,0.2,1.6,0.7c0.5,0.5,0.7,1,0.7,1.6
		c0,0.6-0.2,1.2-0.7,1.7c-0.5,0.5-1,0.7-1.6,0.7c-0.6,0-1.2-0.2-1.7-0.7c-0.5-0.5-0.7-1-0.7-1.7c0-0.6,0.2-1.2,0.7-1.6
		C762.1,8,762.6,7.8,763.3,7.8L763.3,7.8z M756.2,15.6c0.6,0,1.2,0.2,1.6,0.7s0.7,1,0.7,1.6c0,0.6-0.2,1.2-0.7,1.7s-1,0.7-1.6,0.7
		c-0.6,0-1.2-0.2-1.6-0.7c-0.5-0.5-0.7-1-0.7-1.7c0-0.6,0.2-1.2,0.7-1.6C755,15.8,755.6,15.6,756.2,15.6L756.2,15.6z"/>
	<path fill="#161717" d="M782.1,0c0.6,0,1.2,0.2,1.6,0.7c0.5,0.5,0.7,1,0.7,1.6c0,0.6-0.2,1.2-0.7,1.7c-0.5,0.5-1,0.7-1.6,0.7
		c-0.6,0-1.2-0.2-1.7-0.7c-0.5-0.5-0.7-1-0.7-1.7c0-0.6,0.2-1.2,0.7-1.6S781.5,0,782.1,0L782.1,0z M775,7.8c0.6,0,1.2,0.2,1.6,0.7
		c0.5,0.5,0.7,1,0.7,1.6c0,0.6-0.2,1.2-0.7,1.7c-0.5,0.5-1,0.7-1.6,0.7s-1.2-0.2-1.6-0.7c-0.5-0.5-0.7-1-0.7-1.7
		c0-0.6,0.2-1.2,0.7-1.6C773.9,8,774.4,7.8,775,7.8L775,7.8z M782.1,7.8c0.6,0,1.2,0.2,1.6,0.7c0.5,0.5,0.7,1,0.7,1.6
		c0,0.6-0.2,1.2-0.7,1.7c-0.5,0.5-1,0.7-1.6,0.7c-0.6,0-1.2-0.2-1.7-0.7c-0.5-0.5-0.7-1-0.7-1.7c0-0.6,0.2-1.2,0.7-1.6
		C780.9,8,781.5,7.8,782.1,7.8L782.1,7.8z M782.1,15.6c0.6,0,1.2,0.2,1.6,0.7c0.5,0.5,0.7,1,0.7,1.6c0,0.6-0.2,1.2-0.7,1.7
		c-0.5,0.5-1,0.7-1.6,0.7c-0.6,0-1.2-0.2-1.7-0.7s-0.7-1-0.7-1.7c0-0.6,0.2-1.2,0.7-1.6S781.5,15.6,782.1,15.6L782.1,15.6z M793.9,0
		c0.6,0,1.2,0.2,1.6,0.7c0.5,0.5,0.7,1,0.7,1.6c0,0.6-0.2,1.2-0.7,1.7c-0.5,0.5-1,0.7-1.6,0.7s-1.2-0.2-1.6-0.7
		c-0.5-0.5-0.7-1-0.7-1.7c0-0.6,0.2-1.2,0.7-1.6C792.7,0.2,793.2,0,793.9,0L793.9,0z M812.8,0c0.6,0,1.2,0.2,1.6,0.7s0.7,1,0.7,1.6
		c0,0.6-0.2,1.2-0.7,1.7c-0.5,0.5-1,0.7-1.6,0.7c-0.7,0-1.2-0.2-1.7-0.7c-0.5-0.5-0.7-1-0.7-1.7c0-0.6,0.2-1.2,0.7-1.6
		S812.1,0,812.8,0L812.8,0z M819.8,0c0.6,0,1.2,0.2,1.6,0.7c0.5,0.5,0.7,1,0.7,1.6c0,0.6-0.2,1.2-0.7,1.7c-0.5,0.5-1,0.7-1.6,0.7
		c-0.6,0-1.2-0.2-1.6-0.7c-0.5-0.5-0.7-1-0.7-1.7c0-0.6,0.2-1.2,0.7-1.6C818.6,0.2,819.2,0,819.8,0L819.8,0z M819.8,7.8
		c0.6,0,1.2,0.2,1.6,0.7c0.5,0.5,0.7,1,0.7,1.6c0,0.6-0.2,1.2-0.7,1.7c-0.5,0.5-1,0.7-1.6,0.7c-0.6,0-1.2-0.2-1.6-0.7
		c-0.5-0.5-0.7-1-0.7-1.7c0-0.6,0.2-1.2,0.7-1.6C818.6,8,819.2,7.8,819.8,7.8L819.8,7.8z M812.8,15.6c0.6,0,1.2,0.2,1.6,0.7
		s0.7,1,0.7,1.6c0,0.6-0.2,1.2-0.7,1.7s-1,0.7-1.6,0.7c-0.7,0-1.2-0.2-1.7-0.7s-0.7-1-0.7-1.7c0-0.6,0.2-1.2,0.7-1.6
		S812.1,15.6,812.8,15.6L812.8,15.6z M838.7,0c0.6,0,1.2,0.2,1.6,0.7c0.5,0.5,0.7,1,0.7,1.6c0,0.6-0.2,1.2-0.7,1.7
		c-0.5,0.5-1,0.7-1.6,0.7S837.4,4.4,837,4c-0.5-0.5-0.7-1-0.7-1.7c0-0.6,0.2-1.2,0.7-1.6C837.4,0.2,838,0,838.7,0L838.7,0z
		 M831.6,7.8c0.6,0,1.2,0.2,1.6,0.7c0.5,0.5,0.7,1,0.7,1.6c0,0.6-0.2,1.2-0.7,1.7c-0.5,0.5-1,0.7-1.6,0.7c-0.7,0-1.2-0.2-1.7-0.7
		c-0.5-0.5-0.7-1-0.7-1.7c0-0.6,0.2-1.2,0.7-1.6C830.4,8,831,7.8,831.6,7.8L831.6,7.8z M850.5,0c0.6,0,1.2,0.2,1.6,0.7
		c0.5,0.5,0.7,1,0.7,1.6c0,0.6-0.2,1.2-0.7,1.7c-0.5,0.5-1,0.7-1.6,0.7c-0.7,0-1.2-0.2-1.7-0.7c-0.5-0.5-0.7-1-0.7-1.7
		c0-0.6,0.2-1.2,0.7-1.6C849.2,0.2,849.8,0,850.5,0L850.5,0z M857.5,0c0.6,0,1.2,0.2,1.6,0.7c0.5,0.5,0.7,1,0.7,1.6
		c0,0.6-0.2,1.2-0.7,1.7c-0.5,0.5-1,0.7-1.6,0.7s-1.2-0.2-1.6-0.7c-0.5-0.5-0.7-1-0.7-1.7c0-0.6,0.3-1.2,0.7-1.6
		C856.3,0.2,856.9,0,857.5,0L857.5,0z M850.5,7.8c0.6,0,1.2,0.2,1.6,0.7c0.5,0.5,0.7,1,0.7,1.6c0,0.6-0.2,1.2-0.7,1.7
		c-0.5,0.5-1,0.7-1.6,0.7c-0.7,0-1.2-0.2-1.7-0.7c-0.5-0.5-0.7-1-0.7-1.7c0-0.6,0.2-1.2,0.7-1.6C849.2,8,849.8,7.8,850.5,7.8
		L850.5,7.8z M857.5,15.6c0.6,0,1.2,0.2,1.6,0.7c0.5,0.5,0.7,1,0.7,1.6c0,0.6-0.2,1.2-0.7,1.7c-0.5,0.5-1,0.7-1.6,0.7
		s-1.2-0.2-1.6-0.7c-0.5-0.5-0.7-1-0.7-1.7c0-0.6,0.3-1.2,0.7-1.6C856.3,15.8,856.9,15.6,857.5,15.6L857.5,15.6z M888.1,0
		c0.6,0,1.2,0.2,1.6,0.7c0.5,0.5,0.7,1,0.7,1.6c0,0.6-0.2,1.2-0.7,1.7c-0.5,0.5-1,0.7-1.6,0.7c-0.7,0-1.2-0.2-1.7-0.7
		c-0.5-0.5-0.7-1-0.7-1.7c0-0.6,0.2-1.2,0.7-1.6C886.9,0.2,887.5,0,888.1,0L888.1,0z M895.2,0c0.6,0,1.2,0.2,1.6,0.7
		c0.5,0.5,0.7,1,0.7,1.6c0,0.6-0.2,1.2-0.7,1.7c-0.5,0.5-1,0.7-1.6,0.7S894,4.4,893.6,4c-0.5-0.5-0.7-1-0.7-1.7
		c0-0.6,0.2-1.2,0.7-1.6C894,0.2,894.5,0,895.2,0L895.2,0z M895.2,7.8c0.6,0,1.2,0.2,1.6,0.7c0.5,0.5,0.7,1,0.7,1.6
		c0,0.6-0.2,1.2-0.7,1.7c-0.5,0.5-1,0.7-1.6,0.7s-1.2-0.2-1.6-0.7c-0.5-0.5-0.7-1-0.7-1.7c0-0.6,0.2-1.2,0.7-1.6
		C894,8,894.5,7.8,895.2,7.8L895.2,7.8z M907,0c0.6,0,1.2,0.2,1.6,0.7c0.5,0.5,0.7,1,0.7,1.6c0,0.6-0.2,1.2-0.7,1.7
		c-0.5,0.5-1,0.7-1.6,0.7c-0.6,0-1.2-0.2-1.7-0.7c-0.5-0.5-0.7-1-0.7-1.7c0-0.6,0.2-1.2,0.7-1.6C905.8,0.2,906.3,0,907,0L907,0z
		 M907,7.8c0.6,0,1.2,0.2,1.6,0.7c0.5,0.5,0.7,1,0.7,1.6c0,0.6-0.2,1.2-0.7,1.7c-0.5,0.5-1,0.7-1.6,0.7c-0.6,0-1.2-0.2-1.7-0.7
		c-0.5-0.5-0.7-1-0.7-1.7c0-0.6,0.2-1.2,0.7-1.6C905.8,8,906.3,7.8,907,7.8L907,7.8z M907,15.6c0.6,0,1.2,0.2,1.6,0.7
		c0.5,0.5,0.7,1,0.7,1.6c0,0.6-0.2,1.2-0.7,1.7c-0.5,0.5-1,0.7-1.6,0.7c-0.6,0-1.2-0.2-1.7-0.7c-0.5-0.5-0.7-1-0.7-1.7
		c0-0.6,0.2-1.2,0.7-1.6C905.8,15.8,906.3,15.6,907,15.6L907,15.6z M925.8,0c0.6,0,1.2,0.2,1.6,0.7c0.5,0.5,0.7,1,0.7,1.6
		c0,0.6-0.2,1.2-0.7,1.7c-0.5,0.5-1,0.7-1.6,0.7c-0.6,0-1.2-0.2-1.7-0.7c-0.5-0.5-0.7-1-0.7-1.7c0-0.6,0.2-1.2,0.7-1.6
		S925.2,0,925.8,0L925.8,0z M932.9,0c0.6,0,1.2,0.2,1.6,0.7s0.7,1,0.7,1.6c0,0.6-0.2,1.2-0.7,1.7c-0.5,0.5-1,0.7-1.6,0.7
		c-0.7,0-1.2-0.2-1.7-0.7c-0.5-0.5-0.7-1-0.7-1.7c0-0.6,0.2-1.2,0.7-1.6S932.2,0,932.9,0L932.9,0z M925.8,7.8c0.6,0,1.2,0.2,1.6,0.7
		c0.5,0.5,0.7,1,0.7,1.6c0,0.6-0.2,1.2-0.7,1.7c-0.5,0.5-1,0.7-1.6,0.7c-0.6,0-1.2-0.2-1.7-0.7c-0.5-0.5-0.7-1-0.7-1.7
		c0-0.6,0.2-1.2,0.7-1.6S925.2,7.8,925.8,7.8L925.8,7.8z M932.9,15.6c0.6,0,1.2,0.2,1.6,0.7s0.7,1,0.7,1.6c0,0.6-0.2,1.2-0.7,1.7
		s-1,0.7-1.6,0.7c-0.7,0-1.2-0.2-1.7-0.7s-0.7-1-0.7-1.7c0-0.6,0.2-1.2,0.7-1.6S932.2,15.6,932.9,15.6L932.9,15.6z M963.5,0
		c0.6,0,1.2,0.2,1.6,0.7c0.5,0.5,0.7,1,0.7,1.6c0,0.6-0.2,1.2-0.7,1.7c-0.5,0.5-1,0.7-1.6,0.7c-0.6,0-1.2-0.2-1.7-0.7
		c-0.5-0.5-0.7-1-0.7-1.7c0-0.6,0.2-1.2,0.7-1.6C962.3,0.2,962.9,0,963.5,0L963.5,0z M982.4,0c0.6,0,1.2,0.2,1.6,0.7
		c0.5,0.5,0.7,1,0.7,1.6c0,0.6-0.2,1.2-0.7,1.7c-0.5,0.5-1,0.7-1.6,0.7c-0.6,0-1.2-0.2-1.7-0.7c-0.5-0.5-0.7-1-0.7-1.7
		c0-0.6,0.2-1.2,0.7-1.6S981.7,0,982.4,0L982.4,0z M989.4,0c0.6,0,1.2,0.2,1.6,0.7s0.7,1,0.7,1.6c0,0.6-0.3,1.2-0.7,1.7
		c-0.5,0.5-1,0.7-1.6,0.7c-0.7,0-1.2-0.2-1.7-0.7c-0.5-0.5-0.7-1-0.7-1.7c0-0.6,0.2-1.2,0.7-1.6S988.8,0,989.4,0L989.4,0z
		 M989.4,7.8c0.6,0,1.2,0.2,1.6,0.7s0.7,1,0.7,1.6c0,0.6-0.3,1.2-0.7,1.7c-0.5,0.5-1,0.7-1.6,0.7c-0.7,0-1.2-0.2-1.7-0.7
		c-0.5-0.5-0.7-1-0.7-1.7c0-0.6,0.2-1.2,0.7-1.6S988.8,7.8,989.4,7.8L989.4,7.8z M1001.2,0c0.6,0,1.2,0.2,1.6,0.7
		c0.5,0.5,0.7,1,0.7,1.6c0,0.6-0.2,1.2-0.7,1.7c-0.5,0.5-1,0.7-1.6,0.7c-0.6,0-1.2-0.2-1.7-0.7c-0.5-0.5-0.7-1-0.7-1.7
		c0-0.6,0.2-1.2,0.7-1.6C1000,0.2,1000.6,0,1001.2,0L1001.2,0z M1020.1,0c0.6,0,1.2,0.2,1.6,0.7c0.5,0.5,0.7,1,0.7,1.6
		c0,0.6-0.2,1.2-0.7,1.7c-0.5,0.5-1,0.7-1.6,0.7s-1.2-0.2-1.6-0.7c-0.5-0.5-0.7-1-0.7-1.7c0-0.6,0.2-1.2,0.7-1.6
		C1018.9,0.2,1019.4,0,1020.1,0L1020.1,0z M1020.1,7.8c0.6,0,1.2,0.2,1.6,0.7c0.5,0.5,0.7,1,0.7,1.6c0,0.6-0.2,1.2-0.7,1.6
		c-0.5,0.5-1,0.7-1.6,0.7s-1.2-0.2-1.6-0.7c-0.5-0.5-0.7-1-0.7-1.6s0.2-1.2,0.7-1.6C1018.9,8,1019.4,7.8,1020.1,7.8L1020.1,7.8z
		 M1020.1,15.6c0.6,0,1.2,0.2,1.6,0.7c0.5,0.5,0.7,1,0.7,1.6c0,0.6-0.2,1.2-0.7,1.7c-0.5,0.5-1,0.7-1.6,0.7s-1.2-0.2-1.6-0.7
		c-0.5-0.5-0.7-1-0.7-1.7c0-0.6,0.2-1.2,0.7-1.6C1018.9,15.8,1019.4,15.6,1020.1,15.6L1020.1,15.6z M1027.1,0c0.6,0,1.2,0.2,1.6,0.7
		c0.5,0.5,0.7,1,0.7,1.6c0,0.6-0.2,1.2-0.7,1.7c-0.5,0.5-1,0.7-1.6,0.7c-0.7,0-1.2-0.2-1.7-0.7c-0.5-0.5-0.7-1-0.7-1.7
		c0-0.6,0.2-1.2,0.7-1.6C1025.9,0.2,1026.4,0,1027.1,0L1027.1,0z M1046,0c0.6,0,1.2,0.2,1.6,0.7c0.5,0.5,0.7,1,0.7,1.6
		c0,0.6-0.2,1.2-0.7,1.7c-0.5,0.5-1,0.7-1.6,0.7c-0.6,0-1.2-0.2-1.7-0.7c-0.5-0.5-0.7-1-0.7-1.7c0-0.6,0.2-1.2,0.7-1.6
		C1044.8,0.2,1045.3,0,1046,0L1046,0z M1038.9,7.8c0.6,0,1.2,0.2,1.6,0.7s0.7,1,0.7,1.6c0,0.6-0.2,1.2-0.7,1.7
		c-0.5,0.5-1,0.7-1.6,0.7s-1.2-0.2-1.6-0.7c-0.5-0.5-0.7-1-0.7-1.7c0-0.6,0.2-1.2,0.7-1.6C1037.7,8,1038.3,7.8,1038.9,7.8
		L1038.9,7.8z M1046,7.8c0.6,0,1.2,0.2,1.6,0.7c0.5,0.5,0.7,1,0.7,1.6c0,0.6-0.2,1.2-0.7,1.7c-0.5,0.5-1,0.7-1.6,0.7
		c-0.6,0-1.2-0.2-1.7-0.7c-0.5-0.5-0.7-1-0.7-1.7c0-0.6,0.2-1.2,0.7-1.6C1044.8,8,1045.3,7.8,1046,7.8L1046,7.8z M1038.9,15.6
		c0.6,0,1.2,0.2,1.6,0.7s0.7,1,0.7,1.6c0,0.6-0.2,1.2-0.7,1.7s-1,0.7-1.6,0.7s-1.2-0.2-1.6-0.7c-0.5-0.5-0.7-1-0.7-1.7
		c0-0.6,0.2-1.2,0.7-1.6C1037.7,15.8,1038.3,15.6,1038.9,15.6L1038.9,15.6z M1057.8,0c0.6,0,1.2,0.2,1.6,0.7c0.5,0.5,0.7,1,0.7,1.6
		c0,0.6-0.2,1.2-0.7,1.7c-0.5,0.5-1,0.7-1.6,0.7c-0.6,0-1.2-0.2-1.6-0.7c-0.5-0.5-0.7-1-0.7-1.7c0-0.6,0.3-1.2,0.7-1.6
		C1056.5,0.2,1057.1,0,1057.8,0L1057.8,0z M1076.6,0c0.6,0,1.2,0.2,1.6,0.7s0.7,1,0.7,1.6c0,0.6-0.2,1.2-0.7,1.7
		c-0.5,0.5-1,0.7-1.6,0.7c-0.6,0-1.2-0.2-1.6-0.7c-0.5-0.5-0.7-1-0.7-1.7c0-0.6,0.2-1.2,0.7-1.6C1075.4,0.2,1076,0,1076.6,0
		L1076.6,0z M1083.7,0c0.6,0,1.2,0.2,1.6,0.7c0.5,0.5,0.7,1,0.7,1.6c0,0.6-0.2,1.2-0.7,1.7c-0.5,0.5-1,0.7-1.6,0.7
		c-0.6,0-1.2-0.2-1.7-0.7c-0.5-0.5-0.7-1-0.7-1.7c0-0.6,0.2-1.2,0.7-1.6S1083,0,1083.7,0L1083.7,0z M1102.5,0c0.6,0,1.2,0.2,1.6,0.7
		s0.7,1,0.7,1.6c0,0.6-0.2,1.2-0.7,1.7c-0.5,0.5-1,0.7-1.6,0.7c-0.6,0-1.2-0.2-1.7-0.7c-0.5-0.5-0.7-1-0.7-1.7
		c0-0.6,0.2-1.2,0.7-1.6C1101.3,0.2,1101.9,0,1102.5,0L1102.5,0z M1095.4,7.8c0.6,0,1.2,0.2,1.6,0.7s0.7,1,0.7,1.6
		c0,0.6-0.2,1.2-0.7,1.7c-0.5,0.5-1,0.7-1.6,0.7s-1.2-0.2-1.6-0.7c-0.5-0.5-0.7-1-0.7-1.7c0-0.6,0.2-1.2,0.7-1.6
		S1094.8,7.8,1095.4,7.8L1095.4,7.8z M1121.4,0c0.6,0,1.2,0.2,1.6,0.7s0.7,1,0.7,1.6c0,0.6-0.2,1.2-0.7,1.7c-0.5,0.5-1,0.7-1.6,0.7
		c-0.6,0-1.2-0.2-1.7-0.7c-0.5-0.5-0.7-1-0.7-1.7c0-0.6,0.2-1.2,0.7-1.6S1120.7,0,1121.4,0L1121.4,0z M1114.3,7.8
		c0.6,0,1.2,0.2,1.6,0.7c0.5,0.5,0.7,1,0.7,1.6c0,0.6-0.2,1.2-0.7,1.7c-0.5,0.5-1,0.7-1.6,0.7c-0.7,0-1.2-0.2-1.7-0.7
		c-0.5-0.5-0.7-1-0.7-1.7c0-0.6,0.2-1.2,0.7-1.6S1113.7,7.8,1114.3,7.8L1114.3,7.8z M1152,0c0.6,0,1.2,0.2,1.6,0.7s0.7,1,0.7,1.6
		c0,0.6-0.2,1.2-0.7,1.7c-0.5,0.5-1,0.7-1.6,0.7c-0.7,0-1.2-0.2-1.7-0.7c-0.5-0.5-0.7-1-0.7-1.7c0-0.6,0.2-1.2,0.7-1.6
		S1151.3,0,1152,0L1152,0z M1159.1,7.8c0.6,0,1.2,0.2,1.6,0.7s0.7,1,0.7,1.6c0,0.6-0.2,1.2-0.7,1.7c-0.5,0.5-1,0.7-1.6,0.7
		c-0.6,0-1.2-0.2-1.6-0.7c-0.5-0.5-0.7-1-0.7-1.7c0-0.6,0.2-1.2,0.7-1.6C1157.9,8,1158.4,7.8,1159.1,7.8L1159.1,7.8z M1152,15.6
		c0.6,0,1.2,0.2,1.6,0.7s0.7,1,0.7,1.6c0,0.6-0.2,1.2-0.7,1.7s-1,0.7-1.6,0.7c-0.7,0-1.2-0.2-1.7-0.7s-0.7-1-0.7-1.7
		c0-0.6,0.2-1.2,0.7-1.6S1151.3,15.6,1152,15.6L1152,15.6z M1170.9,0c0.6,0,1.2,0.2,1.6,0.7c0.5,0.5,0.7,1,0.7,1.6
		c0,0.6-0.3,1.2-0.7,1.7c-0.5,0.5-1,0.7-1.6,0.7c-0.7,0-1.2-0.2-1.7-0.7c-0.5-0.5-0.7-1-0.7-1.7c0-0.6,0.2-1.2,0.7-1.6
		S1170.2,0,1170.9,0L1170.9,0z M1170.9,7.8c0.6,0,1.2,0.2,1.6,0.7c0.5,0.5,0.7,1,0.7,1.6c0,0.6-0.3,1.2-0.7,1.7
		c-0.5,0.5-1,0.7-1.6,0.7c-0.7,0-1.2-0.2-1.7-0.7c-0.5-0.5-0.7-1-0.7-1.7c0-0.6,0.2-1.2,0.7-1.6S1170.2,7.8,1170.9,7.8L1170.9,7.8z
		 M1189.7,0c0.6,0,1.2,0.2,1.6,0.7c0.5,0.5,0.7,1,0.7,1.6c0,0.6-0.2,1.2-0.7,1.7c-0.5,0.5-1,0.7-1.6,0.7c-0.7,0-1.2-0.2-1.7-0.7
		c-0.5-0.5-0.7-1-0.7-1.7c0-0.6,0.2-1.2,0.7-1.6C1188.5,0.2,1189,0,1189.7,0L1189.7,0z M1189.7,7.8c0.6,0,1.2,0.2,1.6,0.7
		c0.5,0.5,0.7,1,0.7,1.6c0,0.6-0.3,1.2-0.7,1.6c-0.4,0.5-1,0.7-1.6,0.7c-0.6,0-1.2-0.2-1.6-0.7c-0.5-0.5-0.7-1-0.7-1.6
		c0-0.6,0.2-1.2,0.7-1.6C1188.5,8,1189,7.8,1189.7,7.8L1189.7,7.8z M1196.7,7.8c0.6,0,1.2,0.2,1.6,0.7c0.5,0.5,0.7,1,0.7,1.6
		c0,0.6-0.2,1.2-0.7,1.7c-0.5,0.5-1,0.7-1.6,0.7c-0.6,0-1.2-0.2-1.6-0.7c-0.5-0.5-0.7-1-0.7-1.7c0-0.6,0.2-1.2,0.7-1.6
		S1196.1,7.8,1196.7,7.8L1196.7,7.8z M1189.7,15.6c0.6,0,1.2,0.2,1.6,0.7c0.5,0.5,0.7,1,0.7,1.6c0,0.6-0.2,1.2-0.7,1.7
		c-0.5,0.5-1,0.7-1.6,0.7c-0.7,0-1.2-0.2-1.7-0.7c-0.5-0.5-0.7-1-0.7-1.7c0-0.6,0.2-1.2,0.7-1.6C1188.5,15.8,1189,15.6,1189.7,15.6
		L1189.7,15.6z M1196.7,15.6c0.6,0,1.2,0.2,1.6,0.7c0.5,0.5,0.7,1,0.7,1.6c0,0.6-0.2,1.2-0.7,1.7c-0.5,0.5-1,0.7-1.6,0.7
		c-0.6,0-1.2-0.2-1.6-0.7c-0.5-0.5-0.7-1-0.7-1.7c0-0.6,0.2-1.2,0.7-1.6C1195.5,15.8,1196.1,15.6,1196.7,15.6L1196.7,15.6z
		 M1208.5,0c0.6,0,1.2,0.2,1.6,0.7c0.5,0.5,0.7,1,0.7,1.6c0,0.6-0.2,1.2-0.7,1.7c-0.5,0.5-1,0.7-1.6,0.7c-0.7,0-1.2-0.2-1.7-0.7
		c-0.5-0.5-0.7-1-0.7-1.7c0-0.6,0.2-1.2,0.7-1.6S1207.9,0,1208.5,0L1208.5,0z M1215.6,7.8c0.6,0,1.2,0.2,1.6,0.7s0.7,1,0.7,1.6
		c0,0.6-0.2,1.2-0.7,1.7c-0.5,0.5-1,0.7-1.6,0.7c-0.6,0-1.2-0.2-1.6-0.7c-0.5-0.5-0.7-1-0.7-1.7c0-0.6,0.2-1.2,0.7-1.6
		S1214.9,7.8,1215.6,7.8L1215.6,7.8z M1227.4,0c0.6,0,1.2,0.2,1.6,0.7c0.5,0.5,0.7,1,0.7,1.6c0,0.6-0.2,1.2-0.7,1.7
		c-0.5,0.5-1,0.7-1.6,0.7c-0.6,0-1.2-0.2-1.7-0.7c-0.5-0.5-0.7-1-0.7-1.7c0-0.6,0.2-1.2,0.7-1.6S1226.7,0,1227.4,0L1227.4,0z
		 M1227.4,15.6c0.6,0,1.2,0.2,1.6,0.7c0.5,0.5,0.7,1,0.7,1.6c0,0.6-0.2,1.2-0.7,1.7c-0.5,0.5-1,0.7-1.6,0.7c-0.6,0-1.2-0.2-1.7-0.7
		s-0.7-1-0.7-1.7c0-0.6,0.2-1.2,0.7-1.6S1226.7,15.6,1227.4,15.6L1227.4,15.6z"/>
	<path fill="#161717" d="M1253.3,0c0.6,0,1.2,0.2,1.6,0.7c0.5,0.5,0.7,1,0.7,1.6c0,0.6-0.2,1.2-0.7,1.7c-0.5,0.5-1,0.7-1.6,0.7
		c-0.7,0-1.2-0.2-1.7-0.7c-0.5-0.5-0.7-1-0.7-1.7c0-0.6,0.2-1.2,0.7-1.6S1252.6,0,1253.3,0L1253.3,0z M1246.2,7.8
		c0.6,0,1.2,0.2,1.6,0.7c0.5,0.5,0.7,1,0.7,1.6c0,0.6-0.2,1.2-0.7,1.7c-0.5,0.5-1,0.7-1.6,0.7c-0.6,0-1.2-0.2-1.7-0.7
		c-0.5-0.5-0.7-1-0.7-1.7c0-0.6,0.2-1.2,0.7-1.6C1245,8,1245.6,7.8,1246.2,7.8L1246.2,7.8z M1253.3,7.8c0.6,0,1.2,0.2,1.6,0.7
		c0.5,0.5,0.7,1,0.7,1.6c0,0.6-0.2,1.2-0.7,1.7c-0.5,0.5-1,0.7-1.6,0.7c-0.7,0-1.2-0.2-1.7-0.7c-0.5-0.5-0.7-1-0.7-1.7
		c0-0.6,0.2-1.2,0.7-1.6S1252.7,7.8,1253.3,7.8L1253.3,7.8z M1246.2,15.6c0.6,0,1.2,0.2,1.6,0.7c0.5,0.5,0.7,1,0.7,1.6
		c0,0.6-0.2,1.2-0.7,1.7c-0.5,0.5-1,0.7-1.6,0.7c-0.6,0-1.2-0.2-1.7-0.7c-0.5-0.5-0.7-1-0.7-1.7c0-0.6,0.2-1.2,0.7-1.6
		C1245,15.8,1245.6,15.6,1246.2,15.6L1246.2,15.6z M1265.1,0c0.6,0,1.2,0.2,1.6,0.7s0.7,1,0.7,1.6c0,0.6-0.2,1.2-0.7,1.7
		c-0.5,0.5-1,0.7-1.6,0.7c-0.6,0-1.2-0.2-1.7-0.7c-0.5-0.5-0.7-1-0.7-1.7c0-0.6,0.2-1.2,0.7-1.6S1264.4,0,1265.1,0L1265.1,0z
		 M1272.2,7.8c0.6,0,1.2,0.2,1.6,0.7s0.7,1,0.7,1.6c0,0.6-0.2,1.2-0.7,1.7c-0.5,0.5-1,0.7-1.6,0.7c-0.7,0-1.2-0.2-1.7-0.7
		c-0.5-0.5-0.7-1-0.7-1.7c0-0.6,0.2-1.2,0.7-1.6S1271.5,7.8,1272.2,7.8L1272.2,7.8z M1265.1,15.6c0.6,0,1.2,0.2,1.6,0.7
		s0.7,1,0.7,1.6c0,0.6-0.2,1.2-0.7,1.7s-1,0.7-1.6,0.7c-0.6,0-1.2-0.2-1.7-0.7s-0.7-1-0.7-1.7c0-0.6,0.2-1.2,0.7-1.6
		S1264.4,15.6,1265.1,15.6L1265.1,15.6z M1291,0c0.6,0,1.2,0.2,1.6,0.7s0.7,1,0.7,1.6c0,0.6-0.3,1.2-0.7,1.7c-0.5,0.5-1,0.7-1.6,0.7
		c-0.7,0-1.2-0.2-1.7-0.7c-0.5-0.5-0.7-1-0.7-1.7c0-0.6,0.2-1.2,0.7-1.6C1289.8,0.2,1290.3,0,1291,0L1291,0z M1283.9,7.8
		c0.6,0,1.2,0.2,1.6,0.7c0.5,0.5,0.7,1,0.7,1.6c0,0.6-0.2,1.2-0.7,1.7c-0.5,0.5-1,0.7-1.6,0.7c-0.6,0-1.2-0.2-1.7-0.7
		c-0.5-0.5-0.7-1-0.7-1.7c0-0.6,0.2-1.2,0.7-1.6C1282.7,8,1283.3,7.8,1283.9,7.8L1283.9,7.8z M1291,7.8c0.6,0,1.2,0.2,1.6,0.7
		s0.7,1,0.7,1.6c0,0.6-0.3,1.2-0.7,1.7c-0.5,0.5-1,0.7-1.6,0.7c-0.7,0-1.2-0.2-1.7-0.7c-0.5-0.5-0.7-1-0.7-1.7
		c0-0.6,0.2-1.2,0.7-1.6C1289.8,8,1290.4,7.8,1291,7.8L1291,7.8z M1291,15.6c0.6,0,1.2,0.2,1.6,0.7s0.7,1,0.7,1.6
		c0,0.6-0.3,1.2-0.7,1.7s-1,0.7-1.6,0.7c-0.7,0-1.2-0.2-1.7-0.7c-0.5-0.5-0.7-1-0.7-1.7c0-0.6,0.2-1.2,0.7-1.6
		C1289.8,15.8,1290.3,15.6,1291,15.6L1291,15.6z"/>
	<path fill="#161717" d="M1321.6,0c0.6,0,1.2,0.2,1.6,0.7s0.7,1,0.7,1.6c0,0.6-0.2,1.2-0.7,1.7c-0.5,0.5-1,0.7-1.6,0.7
		c-0.6,0-1.2-0.2-1.7-0.7c-0.5-0.5-0.7-1-0.7-1.7c0-0.6,0.2-1.2,0.7-1.6S1321,0,1321.6,0L1321.6,0z M1328.7,0c0.6,0,1.2,0.2,1.6,0.7
		c0.5,0.5,0.7,1,0.7,1.6c0,0.6-0.2,1.2-0.7,1.7c-0.5,0.5-1,0.7-1.6,0.7c-0.7,0-1.2-0.2-1.7-0.7c-0.5-0.5-0.7-1-0.7-1.7
		c0-0.6,0.2-1.2,0.7-1.6S1328,0,1328.7,0L1328.7,0z M1328.7,7.8c0.6,0,1.2,0.2,1.6,0.7c0.5,0.5,0.7,1,0.7,1.6c0,0.6-0.2,1.2-0.7,1.7
		c-0.5,0.5-1,0.7-1.6,0.7c-0.7,0-1.2-0.2-1.7-0.7c-0.5-0.5-0.7-1-0.7-1.7c0-0.6,0.2-1.2,0.7-1.6S1328,7.8,1328.7,7.8L1328.7,7.8z
		 M1340.5,0c0.6,0,1.2,0.2,1.6,0.7c0.5,0.5,0.7,1,0.7,1.6c0,0.6-0.2,1.2-0.7,1.7c-0.5,0.5-1,0.7-1.6,0.7c-0.6,0-1.2-0.2-1.6-0.7
		c-0.5-0.5-0.7-1-0.7-1.7c0-0.6,0.2-1.2,0.7-1.6C1339.3,0.2,1339.8,0,1340.5,0L1340.5,0z M1340.5,7.8c0.6,0,1.2,0.2,1.6,0.7
		c0.5,0.5,0.7,1,0.7,1.6c0,0.6-0.2,1.2-0.7,1.7c-0.5,0.5-1,0.7-1.6,0.7c-0.6,0-1.2-0.2-1.6-0.7c-0.5-0.5-0.7-1-0.7-1.7
		c0-0.6,0.2-1.2,0.7-1.6C1339.3,8,1339.8,7.8,1340.5,7.8L1340.5,7.8z M1340.5,15.6c0.6,0,1.2,0.2,1.6,0.7c0.5,0.5,0.7,1,0.7,1.6
		c0,0.6-0.2,1.2-0.7,1.7c-0.5,0.5-1,0.7-1.6,0.7c-0.6,0-1.2-0.2-1.6-0.7c-0.5-0.5-0.7-1-0.7-1.7c0-0.6,0.2-1.2,0.7-1.6
		C1339.3,15.8,1339.8,15.6,1340.5,15.6L1340.5,15.6z M1359.3,0c0.6,0,1.2,0.2,1.6,0.7s0.7,1,0.7,1.6c0,0.6-0.2,1.2-0.7,1.7
		c-0.5,0.5-1,0.7-1.6,0.7c-0.6,0-1.2-0.2-1.6-0.7c-0.5-0.5-0.7-1-0.7-1.7c0-0.6,0.2-1.2,0.7-1.6C1358.1,0.2,1358.7,0,1359.3,0
		L1359.3,0z M1366.4,0c0.6,0,1.2,0.2,1.6,0.7c0.5,0.5,0.7,1,0.7,1.6c0,0.6-0.2,1.2-0.7,1.7c-0.5,0.5-1,0.7-1.6,0.7
		c-0.6,0-1.2-0.2-1.7-0.7c-0.5-0.5-0.7-1-0.7-1.7c0-0.6,0.2-1.2,0.7-1.6S1365.7,0,1366.4,0L1366.4,0z M1359.3,7.8
		c0.6,0,1.2,0.2,1.6,0.7s0.7,1,0.7,1.6c0,0.6-0.2,1.2-0.7,1.7c-0.5,0.5-1,0.7-1.6,0.7c-0.6,0-1.2-0.2-1.6-0.7
		c-0.5-0.5-0.7-1-0.7-1.7c0-0.6,0.2-1.2,0.7-1.6C1358.1,8,1358.7,7.8,1359.3,7.8L1359.3,7.8z M1366.4,15.6c0.6,0,1.2,0.2,1.6,0.7
		c0.5,0.5,0.7,1,0.7,1.6c0,0.6-0.2,1.2-0.7,1.7c-0.5,0.5-1,0.7-1.6,0.7c-0.6,0-1.2-0.2-1.7-0.7s-0.7-1-0.7-1.7
		c0-0.6,0.2-1.2,0.7-1.6S1365.7,15.6,1366.4,15.6L1366.4,15.6z M1397,0c0.6,0,1.2,0.2,1.6,0.7c0.5,0.5,0.7,1,0.7,1.6
		c0,0.6-0.2,1.2-0.7,1.7c-0.5,0.5-1,0.7-1.6,0.7c-0.6,0-1.2-0.2-1.6-0.7c-0.5-0.5-0.7-1-0.7-1.7c0-0.6,0.2-1.2,0.7-1.6
		S1396.4,0,1397,0L1397,0z M1415.8,0c0.6,0,1.2,0.2,1.6,0.7s0.7,1,0.7,1.6c0,0.6-0.2,1.2-0.7,1.7c-0.5,0.5-1,0.7-1.6,0.7
		c-0.6,0-1.2-0.2-1.6-0.7c-0.5-0.5-0.7-1-0.7-1.7c0-0.6,0.2-1.2,0.7-1.6S1415.2,0,1415.8,0L1415.8,0z M1422.9,0
		c0.6,0,1.2,0.2,1.6,0.7s0.7,1,0.7,1.6c0,0.6-0.2,1.2-0.7,1.7c-0.5,0.5-1,0.7-1.6,0.7c-0.6,0-1.2-0.2-1.7-0.7
		c-0.5-0.5-0.7-1-0.7-1.7c0-0.6,0.2-1.2,0.7-1.6S1422.3,0,1422.9,0L1422.9,0z M1422.9,7.8c0.6,0,1.2,0.2,1.6,0.7s0.7,1,0.7,1.6
		c0,0.6-0.2,1.2-0.7,1.7c-0.5,0.5-1,0.7-1.6,0.7c-0.6,0-1.2-0.2-1.7-0.7c-0.5-0.5-0.7-1-0.7-1.7c0-0.6,0.2-1.2,0.7-1.6
		C1421.7,8,1422.3,7.8,1422.9,7.8L1422.9,7.8z M1434.7,0c0.6,0,1.2,0.2,1.6,0.7s0.7,1,0.7,1.6c0,0.6-0.2,1.2-0.7,1.7
		c-0.5,0.5-1,0.7-1.6,0.7c-0.7,0-1.2-0.2-1.7-0.7c-0.5-0.5-0.7-1-0.7-1.7c0-0.6,0.2-1.2,0.7-1.6C1433.5,0.2,1434,0,1434.7,0
		L1434.7,0z M1453.6,0c0.6,0,1.2,0.2,1.6,0.7c0.5,0.5,0.7,1,0.7,1.6c0,0.6-0.2,1.2-0.7,1.7c-0.5,0.5-1,0.7-1.6,0.7
		c-0.7,0-1.2-0.2-1.7-0.7c-0.5-0.5-0.7-1-0.7-1.7c0-0.6,0.2-1.2,0.7-1.6S1452.9,0,1453.6,0L1453.6,0z M1453.6,7.8
		c0.6,0,1.2,0.2,1.6,0.7c0.5,0.5,0.7,1,0.7,1.6c0,0.6-0.2,1.2-0.7,1.6c-0.5,0.5-1,0.7-1.6,0.7c-0.7,0-1.2-0.2-1.7-0.7
		c-0.5-0.5-0.7-1-0.7-1.6s0.2-1.2,0.7-1.6S1452.9,7.8,1453.6,7.8L1453.6,7.8z M1453.6,15.6c0.6,0,1.2,0.2,1.6,0.7
		c0.5,0.5,0.7,1,0.7,1.6c0,0.6-0.2,1.2-0.7,1.7c-0.5,0.5-1,0.7-1.6,0.7c-0.7,0-1.2-0.2-1.7-0.7s-0.7-1-0.7-1.7
		c0-0.6,0.2-1.2,0.7-1.6S1452.9,15.6,1453.6,15.6L1453.6,15.6z M1460.6,0c0.6,0,1.2,0.2,1.6,0.7s0.7,1,0.7,1.6
		c0,0.6-0.2,1.2-0.7,1.7c-0.5,0.5-1,0.7-1.6,0.7c-0.6,0-1.2-0.2-1.7-0.7s-0.7-1-0.7-1.7c0-0.6,0.2-1.2,0.7-1.6S1459.9,0,1460.6,0
		L1460.6,0z M1479.5,0c0.6,0,1.2,0.2,1.6,0.7s0.7,1,0.7,1.6c0,0.6-0.2,1.2-0.7,1.7c-0.5,0.5-1,0.7-1.6,0.7s-1.2-0.2-1.6-0.7
		c-0.5-0.5-0.7-1-0.7-1.7c0-0.6,0.2-1.2,0.7-1.6C1478.2,0.2,1478.8,0,1479.5,0L1479.5,0z M1472.4,7.8c0.6,0,1.2,0.2,1.6,0.7
		s0.7,1,0.7,1.6c0,0.6-0.2,1.2-0.7,1.7c-0.5,0.5-1,0.7-1.6,0.7c-0.7,0-1.2-0.2-1.7-0.7c-0.5-0.5-0.7-1-0.7-1.7
		c0-0.6,0.2-1.2,0.7-1.6S1471.8,7.8,1472.4,7.8L1472.4,7.8z M1479.5,7.8c0.6,0,1.2,0.2,1.6,0.7s0.7,1,0.7,1.6c0,0.6-0.2,1.2-0.7,1.7
		c-0.5,0.5-1,0.7-1.6,0.7s-1.2-0.2-1.6-0.7c-0.5-0.5-0.7-1-0.7-1.7c0-0.6,0.2-1.2,0.7-1.6C1478.3,8,1478.8,7.8,1479.5,7.8
		L1479.5,7.8z M1472.4,15.6c0.6,0,1.2,0.2,1.6,0.7s0.7,1,0.7,1.6c0,0.6-0.2,1.2-0.7,1.7s-1,0.7-1.6,0.7c-0.7,0-1.2-0.2-1.7-0.7
		s-0.7-1-0.7-1.7c0-0.6,0.2-1.2,0.7-1.6S1471.7,15.6,1472.4,15.6L1472.4,15.6z M1491.3,0c0.6,0,1.2,0.2,1.6,0.7s0.7,1,0.7,1.6
		c0,0.6-0.3,1.2-0.7,1.7c-0.5,0.5-1,0.7-1.6,0.7c-0.7,0-1.2-0.2-1.7-0.7c-0.5-0.5-0.7-1-0.7-1.7c0-0.6,0.2-1.2,0.7-1.6
		C1490,0.2,1490.6,0,1491.3,0L1491.3,0z M1510.1,0c0.6,0,1.2,0.2,1.6,0.7c0.5,0.5,0.7,1,0.7,1.6c0,0.6-0.2,1.2-0.7,1.7
		c-0.5,0.5-1,0.7-1.6,0.7c-0.7,0-1.2-0.2-1.7-0.7c-0.5-0.5-0.7-1-0.7-1.7c0-0.6,0.2-1.2,0.7-1.6S1509.4,0,1510.1,0L1510.1,0z
		 M1517.1,0c0.6,0,1.2,0.2,1.6,0.7s0.7,1,0.7,1.6c0,0.6-0.2,1.2-0.7,1.7c-0.5,0.5-1,0.7-1.6,0.7c-0.6,0-1.2-0.2-1.6-0.7
		c-0.5-0.5-0.7-1-0.7-1.7c0-0.6,0.2-1.2,0.7-1.6C1516,0.2,1516.5,0,1517.1,0L1517.1,0z M1536,0c0.6,0,1.2,0.2,1.6,0.7s0.7,1,0.7,1.6
		c0,0.6-0.2,1.2-0.7,1.7c-0.5,0.5-1,0.7-1.6,0.7s-1.2-0.2-1.6-0.7c-0.5-0.5-0.7-1-0.7-1.7c0-0.6,0.2-1.2,0.7-1.6S1535.3,0,1536,0
		L1536,0z M1528.9,7.8c0.6,0,1.2,0.2,1.6,0.7c0.5,0.5,0.7,1,0.7,1.6c0,0.6-0.2,1.2-0.7,1.7c-0.5,0.5-1,0.7-1.6,0.7
		c-0.7,0-1.2-0.2-1.7-0.7c-0.5-0.5-0.7-1-0.7-1.7c0-0.6,0.2-1.2,0.7-1.6S1528.3,7.8,1528.9,7.8L1528.9,7.8z M1554.9,0
		c0.6,0,1.2,0.2,1.6,0.7c0.5,0.5,0.7,1,0.7,1.6c0,0.6-0.2,1.2-0.7,1.7c-0.5,0.5-1,0.7-1.6,0.7c-0.7,0-1.2-0.2-1.7-0.7
		c-0.5-0.5-0.7-1-0.7-1.7c0-0.6,0.2-1.2,0.7-1.6S1554.2,0,1554.9,0L1554.9,0z M1547.8,7.8c0.6,0,1.2,0.2,1.6,0.7
		c0.5,0.5,0.7,1,0.7,1.6c0,0.6-0.2,1.2-0.7,1.7c-0.5,0.5-1,0.7-1.6,0.7c-0.6,0-1.2-0.2-1.7-0.7c-0.5-0.5-0.7-1-0.7-1.7
		c0-0.6,0.2-1.2,0.7-1.6C1546.6,8,1547.1,7.8,1547.8,7.8L1547.8,7.8z M1585.5,0c0.6,0,1.2,0.2,1.6,0.7c0.5,0.5,0.7,1,0.7,1.6
		c0,0.6-0.2,1.2-0.7,1.7c-0.5,0.5-1,0.7-1.6,0.7c-0.6,0-1.2-0.2-1.7-0.7c-0.5-0.5-0.7-1-0.7-1.7c0-0.6,0.2-1.2,0.7-1.6
		S1584.8,0,1585.5,0L1585.5,0z M1592.6,7.8c0.6,0,1.2,0.2,1.6,0.7s0.7,1,0.7,1.6c0,0.6-0.2,1.2-0.7,1.7c-0.5,0.5-1,0.7-1.6,0.7
		c-0.7,0-1.2-0.2-1.7-0.7c-0.5-0.5-0.7-1-0.7-1.7c0-0.6,0.2-1.2,0.7-1.6S1591.9,7.8,1592.6,7.8L1592.6,7.8z M1585.5,15.6
		c0.6,0,1.2,0.2,1.6,0.7c0.5,0.5,0.7,1,0.7,1.6c0,0.6-0.2,1.2-0.7,1.7c-0.5,0.5-1,0.7-1.6,0.7c-0.6,0-1.2-0.2-1.7-0.7
		s-0.7-1-0.7-1.7c0-0.6,0.2-1.2,0.7-1.6S1584.8,15.6,1585.5,15.6L1585.5,15.6z M1604.3,0c0.6,0,1.2,0.2,1.6,0.7s0.7,1,0.7,1.6
		c0,0.6-0.2,1.2-0.7,1.7c-0.5,0.5-1,0.7-1.6,0.7c-0.6,0-1.2-0.2-1.7-0.7c-0.5-0.5-0.7-1-0.7-1.7c0-0.6,0.2-1.2,0.7-1.6
		C1603.1,0.2,1603.7,0,1604.3,0L1604.3,0z M1604.3,7.8c0.6,0,1.2,0.2,1.6,0.7s0.7,1,0.7,1.6c0,0.6-0.2,1.2-0.7,1.7
		c-0.5,0.5-1,0.7-1.6,0.7c-0.6,0-1.2-0.2-1.7-0.7c-0.5-0.5-0.7-1-0.7-1.7c0-0.6,0.2-1.2,0.7-1.6C1603.1,8,1603.7,7.8,1604.3,7.8
		L1604.3,7.8z M1623.2,0c0.6,0,1.2,0.2,1.6,0.7s0.7,1,0.7,1.6c0,0.6-0.2,1.2-0.7,1.7c-0.5,0.5-1,0.7-1.6,0.7c-0.6,0-1.2-0.2-1.7-0.7
		c-0.5-0.5-0.7-1-0.7-1.7c0-0.6,0.2-1.2,0.7-1.6S1622.5,0,1623.2,0L1623.2,0z M1623.2,7.8c0.6,0,1.2,0.2,1.6,0.7
		c0.5,0.5,0.7,1,0.7,1.6c0,0.6-0.2,1.2-0.7,1.6c-0.5,0.5-1,0.7-1.6,0.7c-0.6,0-1.2-0.2-1.7-0.7c-0.5-0.5-0.7-1-0.7-1.6
		c0-0.6,0.2-1.2,0.7-1.6S1622.5,7.8,1623.2,7.8L1623.2,7.8z M1630.2,7.8c0.6,0,1.2,0.2,1.6,0.7c0.5,0.5,0.7,1,0.7,1.6
		c0,0.6-0.2,1.2-0.7,1.7c-0.5,0.5-1,0.7-1.6,0.7c-0.7,0-1.2-0.2-1.7-0.7c-0.5-0.5-0.7-1-0.7-1.7c0-0.6,0.2-1.2,0.7-1.6
		C1629,8,1629.6,7.8,1630.2,7.8L1630.2,7.8z M1623.2,15.6c0.6,0,1.2,0.2,1.6,0.7s0.7,1,0.7,1.6c0,0.6-0.2,1.2-0.7,1.7
		s-1,0.7-1.6,0.7c-0.6,0-1.2-0.2-1.7-0.7s-0.7-1-0.7-1.7c0-0.6,0.2-1.2,0.7-1.6S1622.5,15.6,1623.2,15.6L1623.2,15.6z M1630.2,15.6
		c0.6,0,1.2,0.2,1.6,0.7c0.5,0.5,0.7,1,0.7,1.6c0,0.6-0.2,1.2-0.7,1.7c-0.5,0.5-1,0.7-1.6,0.7c-0.7,0-1.2-0.2-1.7-0.7
		c-0.5-0.5-0.7-1-0.7-1.7c0-0.6,0.2-1.2,0.7-1.6C1629,15.8,1629.6,15.6,1630.2,15.6L1630.2,15.6z M1642,0c0.6,0,1.2,0.2,1.6,0.7
		c0.5,0.5,0.7,1,0.7,1.6c0,0.6-0.2,1.2-0.7,1.7c-0.5,0.5-1,0.7-1.6,0.7c-0.6,0-1.2-0.2-1.6-0.7c-0.5-0.5-0.7-1-0.7-1.7
		c0-0.6,0.2-1.2,0.7-1.6C1640.8,0.2,1641.4,0,1642,0L1642,0z M1649.1,7.8c0.6,0,1.2,0.2,1.6,0.7c0.5,0.5,0.7,1,0.7,1.6
		c0,0.6-0.2,1.2-0.7,1.7c-0.5,0.5-1,0.7-1.6,0.7c-0.7,0-1.2-0.2-1.7-0.7c-0.5-0.5-0.7-1-0.7-1.7c0-0.6,0.2-1.2,0.7-1.6
		S1648.4,7.8,1649.1,7.8L1649.1,7.8z M1660.9,0c0.6,0,1.2,0.2,1.6,0.7s0.7,1,0.7,1.6c0,0.6-0.2,1.2-0.7,1.7c-0.5,0.5-1,0.7-1.6,0.7
		c-0.6,0-1.2-0.2-1.6-0.7c-0.5-0.5-0.7-1-0.7-1.7c0-0.6,0.2-1.2,0.7-1.6C1659.7,0.2,1660.2,0,1660.9,0L1660.9,0z M1660.9,15.6
		c0.6,0,1.2,0.2,1.6,0.7s0.7,1,0.7,1.6c0,0.6-0.2,1.2-0.7,1.7s-1,0.7-1.6,0.7c-0.6,0-1.2-0.2-1.6-0.7c-0.5-0.5-0.7-1-0.7-1.7
		c0-0.6,0.2-1.2,0.7-1.6C1659.7,15.8,1660.2,15.6,1660.9,15.6L1660.9,15.6z M1686.8,0c0.6,0,1.2,0.2,1.6,0.7c0.5,0.5,0.7,1,0.7,1.6
		c0,0.6-0.2,1.2-0.7,1.7c-0.5,0.5-1,0.7-1.6,0.7c-0.6,0-1.2-0.2-1.7-0.7c-0.5-0.5-0.7-1-0.7-1.7c0-0.6,0.2-1.2,0.7-1.6
		C1685.6,0.2,1686.1,0,1686.8,0L1686.8,0z M1679.7,7.8c0.6,0,1.2,0.2,1.6,0.7s0.7,1,0.7,1.6c0,0.6-0.2,1.2-0.7,1.7
		c-0.5,0.5-1,0.7-1.6,0.7c-0.6,0-1.2-0.2-1.6-0.7c-0.5-0.5-0.7-1-0.7-1.7c0-0.6,0.3-1.2,0.7-1.6C1678.5,8,1679.1,7.8,1679.7,7.8
		L1679.7,7.8z M1686.8,7.8c0.6,0,1.2,0.2,1.6,0.7c0.5,0.5,0.7,1,0.7,1.6c0,0.6-0.2,1.2-0.7,1.7c-0.5,0.5-1,0.7-1.6,0.7
		c-0.6,0-1.2-0.2-1.7-0.7c-0.5-0.5-0.7-1-0.7-1.7c0-0.6,0.2-1.2,0.7-1.6C1685.6,8,1686.1,7.8,1686.8,7.8L1686.8,7.8z M1679.7,15.6
		c0.6,0,1.2,0.2,1.6,0.7s0.7,1,0.7,1.6c0,0.6-0.2,1.2-0.7,1.7s-1,0.7-1.6,0.7c-0.6,0-1.2-0.2-1.6-0.7c-0.5-0.5-0.7-1-0.7-1.7
		c0-0.6,0.3-1.2,0.7-1.6C1678.5,15.8,1679.1,15.6,1679.7,15.6L1679.7,15.6z M1698.6,0c0.6,0,1.2,0.2,1.6,0.7c0.5,0.5,0.7,1,0.7,1.6
		c0,0.6-0.2,1.2-0.7,1.7c-0.5,0.5-1,0.7-1.6,0.7c-0.6,0-1.2-0.2-1.6-0.7c-0.5-0.5-0.7-1-0.7-1.7c0-0.6,0.2-1.2,0.7-1.6
		C1697.3,0.2,1697.9,0,1698.6,0L1698.6,0z M1705.6,7.8c0.6,0,1.2,0.2,1.6,0.7s0.7,1,0.7,1.6c0,0.6-0.2,1.2-0.7,1.7
		c-0.5,0.5-1,0.7-1.6,0.7c-0.6,0-1.2-0.2-1.7-0.7c-0.5-0.5-0.7-1-0.7-1.7c0-0.6,0.2-1.2,0.7-1.6S1705,7.8,1705.6,7.8L1705.6,7.8z
		 M1698.6,15.6c0.6,0,1.2,0.2,1.6,0.7c0.5,0.5,0.7,1,0.7,1.6c0,0.6-0.2,1.2-0.7,1.7c-0.5,0.5-1,0.7-1.6,0.7c-0.6,0-1.2-0.2-1.6-0.7
		c-0.5-0.5-0.7-1-0.7-1.7c0-0.6,0.2-1.2,0.7-1.6C1697.3,15.8,1697.9,15.6,1698.6,15.6L1698.6,15.6z M1724.5,0c0.6,0,1.2,0.2,1.6,0.7
		c0.5,0.5,0.7,1,0.7,1.6c0,0.6-0.2,1.2-0.7,1.7c-0.5,0.5-1,0.7-1.6,0.7c-0.6,0-1.2-0.2-1.7-0.7c-0.5-0.5-0.7-1-0.7-1.7
		c0-0.6,0.2-1.2,0.7-1.6S1723.8,0,1724.5,0L1724.5,0z M1717.4,7.8c0.6,0,1.2,0.2,1.6,0.7s0.7,1,0.7,1.6c0,0.6-0.2,1.2-0.7,1.7
		c-0.5,0.5-1,0.7-1.6,0.7c-0.6,0-1.2-0.2-1.6-0.7c-0.5-0.5-0.7-1-0.7-1.7c0-0.6,0.2-1.2,0.7-1.6C1716.2,8,1716.7,7.8,1717.4,7.8
		L1717.4,7.8z M1724.5,7.8c0.6,0,1.2,0.2,1.6,0.7c0.5,0.5,0.7,1,0.7,1.6c0,0.6-0.2,1.2-0.7,1.7c-0.5,0.5-1,0.7-1.6,0.7
		c-0.6,0-1.2-0.2-1.7-0.7c-0.5-0.5-0.7-1-0.7-1.7c0-0.6,0.2-1.2,0.7-1.6C1723.3,8,1723.8,7.8,1724.5,7.8L1724.5,7.8z M1724.5,15.6
		c0.6,0,1.2,0.2,1.6,0.7c0.5,0.5,0.7,1,0.7,1.6c0,0.6-0.2,1.2-0.7,1.7c-0.5,0.5-1,0.7-1.6,0.7c-0.6,0-1.2-0.2-1.7-0.7
		s-0.7-1-0.7-1.7c0-0.6,0.2-1.2,0.7-1.6S1723.8,15.6,1724.5,15.6L1724.5,15.6z"/>
</g>
</svg>
