<?xml version="1.0" encoding="utf-8"?>
<!-- Generator: Adobe Illustrator 18.1.1, SVG Export Plug-In . SVG Version: 6.00 Build 0)  -->
<svg version="1.1" id="Слой_1" xmlns="http://www.w3.org/2000/svg" xmlns:xlink="http://www.w3.org/1999/xlink" x="0px" y="0px"
	 viewBox="0 0 51.9 32.3" enable-background="new 0 0 51.9 32.3" xml:space="preserve">
<g>
	<path fill-rule="evenodd" clip-rule="evenodd" fill="#FFFFFF" d="M17.8,16.1L0.3,30.2C0.1,29.8,0,29.3,0,28.8V3.5
		C0,3,0.1,2.4,0.4,1.9L17.8,16.1z"/>
	<path fill-rule="evenodd" clip-rule="evenodd" fill="#FFFFFF" d="M3.5,0h44.8c0.5,0,0.9,0.1,1.3,0.3L25.9,19.5L2.2,0.3
		C2.6,0.1,3.1,0,3.5,0L3.5,0z"/>
	<path fill-rule="evenodd" clip-rule="evenodd" fill="#FFFFFF" d="M32.1,17.6L49.7,32c-0.4,0.2-0.9,0.3-1.4,0.3H3.5
		c-0.5,0-1-0.1-1.4-0.3l17.7-14.3l5.4,4.3c0.5,0.4,1.1,0.4,1.6,0L32.1,17.6z"/>
	<path fill-rule="evenodd" clip-rule="evenodd" fill="#FFFFFF" d="M51.5,1.9c0.3,0.5,0.4,1,0.4,1.6v25.2c0,0.5-0.1,1-0.3,1.5
		L34,16.1L51.5,1.9z"/>
</g>
</svg>
