<?xml version="1.0" encoding="utf-8"?>
<!-- Generator: Adobe Illustrator 18.1.1, SVG Export Plug-In . SVG Version: 6.00 Build 0)  -->
<svg version="1.1" id="Слой_1" xmlns="http://www.w3.org/2000/svg" xmlns:xlink="http://www.w3.org/1999/xlink" x="0px" y="0px"
	 viewBox="0 0 38.8 38.7" enable-background="new 0 0 38.8 38.7" xml:space="preserve">
<g>
	<path fill-rule="evenodd" clip-rule="evenodd" fill="#00A3D3" d="M2.1,0h34.5c1.2,0,2.1,1,2.1,2.1v34.5c0,1.2-1,2.1-2.1,2.1H2.1
		c-1.2,0-2.1-1-2.1-2.1V2.1C0,1,1,0,2.1,0L2.1,0z M2.1,1.2h34.5c0.5,0,0.9,0.4,0.9,0.9v34.5c0,0.5-0.4,0.9-0.9,0.9H2.1
		c-0.5,0-0.9-0.4-0.9-0.9V2.1C1.2,1.7,1.7,1.2,2.1,1.2L2.1,1.2z"/>
	<path fill-rule="evenodd" clip-rule="evenodd" fill="#161717" d="M32.2,21v-0.2c0-0.3,0.3-0.6,0.7-0.6h0.2c0.6,0,0.7,0.3,0.7,0.9
		v0.1c0,0.4-0.5,0.6-0.8,0.6C32.5,21.8,32.2,21.4,32.2,21L32.2,21z M32.1,22.8c0.5-0.1,0.8-0.2,1.2-0.4c0.5-0.2,1.8-0.6,2.3-0.7
		L35,19.4l-0.2-0.3l-2.3-8.6l-3.7,1.2L32.1,22.8z"/>
	<path fill-rule="evenodd" clip-rule="evenodd" fill="#161717" d="M5.9,21.8C5.4,21.8,5,21.5,5,21v-0.3c0-0.3,0.4-0.5,0.7-0.5h0.2
		c0.4,0,0.7,0.3,0.7,0.6C6.6,21.3,6.4,21.8,5.9,21.8L5.9,21.8z M3.2,21.7c0.6,0.1,3.3,1.2,3.6,1.2c0.3,0,0.8-2.2,0.9-2.6
		c0.3-1,0.5-1.8,0.7-2.9c0.3-1.2,1.5-4.7,1.5-5.7l-3.7-1.2L3.2,21.7z"/>
	<path fill-rule="evenodd" clip-rule="evenodd" fill="#161717" d="M11.3,14.3c0,0.3,0.6,0.8,0.9,0.8h0.8c1.5,0,3.2-1.6,5.4-1.6h0.3
		c1.8,0,4.8,2.3,6,3.2c1,0.8,4.5,3.3,4.8,4.4l1.4-0.5c0-0.5-2.1-8.3-2.2-8.3c-0.2-0.2-0.8-0.1-1.1-0.1c-0.4-0.1-0.7-0.2-1-0.3
		c-0.6-0.1-1.4-0.6-1.9-0.8c-1.3-0.3-3-1.2-4.1-1.2c-1,0-4.9,0.8-5.5,1.2C14.4,11.5,11.3,13.9,11.3,14.3L11.3,14.3z"/>
	<path fill-rule="evenodd" clip-rule="evenodd" fill="#161717" d="M10.9,14c0-0.6,1.3-1.2,1.6-1.6l-2.3-0.1L8,20.7h0.1l1.4,1.1
		c0.2-0.1,0.3-0.1,0.6-0.1h0.5c0.5,0,1,0.5,1.1,0.9c0.3-0.1,0.5-0.2,0.8-0.2c0.7,0,1.5,0.6,1.6,1.2h0.5c1.1,0,1.8,0.9,1.8,2
		c1.1,0.1,1.3,0.8,1.6,1.6c0.1,0.3,1.6,1.4,1.9,1.4h0.3c0.3,0,0.8-0.5,0.8-0.9c0-0.7-0.5-0.8-0.7-1.3c0.7,0.5,1,1.1,2.1,1.1h0.1
		c0.3,0,0.9-0.6,0.9-1v-0.3c0-0.8-1.2-1.8-1.5-2.3c0.5,0.1,2,1.8,2.9,1.8h0.1c0.6,0,1.4-0.5,1.4-1v-0.7c0-0.8-1.7-2.1-2.1-2.7
		c0.6,0.2,2.3,2.2,3.3,2.2h0.2c0.7,0,1.5-0.6,1.5-1.2v-0.6c0-1.3-8.6-7.8-9.9-7.8h-0.8c-2.4,0-4.2,1.6-5.3,1.6h-0.6
		c-0.7,0-1.7-0.5-1.7-1V14z"/>
	<path fill-rule="evenodd" clip-rule="evenodd" fill="#161717" d="M16.3,26.1h-0.5v-0.6c0-0.9-0.6-1.5-1.4-1.5h-0.1
		c-0.4,0-0.1,0.2-0.7,0.3v-0.7c-0.3-0.1-0.4-0.8-1.2-0.8h-0.2c-0.5,0-0.6,0.3-0.9,0.5c-0.1-0.5-0.5-1.2-1-1.2h-0.2
		c-0.6,0-1.2,0.5-1.2,1.2c0,0.7,0.6,1.2,1.2,1.2h0.1c0.3,0,0.3-0.1,0.5-0.1V25c0,0.5,0.7,1.2,1.2,1.2h0.4c0.1,0,0.4-0.2,0.6-0.3
		c0,0.8,0.5,1.5,1.3,1.5h0.7c0.1,0.7,1,1.3,1.7,1.3h0.3c0.5,0,1.2-0.3,1.2-0.6l-0.8-0.6C17.5,26.7,17,26.1,16.3,26.1L16.3,26.1z"/>
</g>
</svg>
