<?xml version="1.0" encoding="utf-8"?>
<!-- Generator: Adobe Illustrator 18.1.1, SVG Export Plug-In . SVG Version: 6.00 Build 0)  -->
<svg version="1.1" id="Слой_1" xmlns="http://www.w3.org/2000/svg" xmlns:xlink="http://www.w3.org/1999/xlink" x="0px" y="0px"
	 viewBox="0 0 38.8 38.7" enable-background="new 0 0 38.8 38.7" xml:space="preserve">
<g>
	<path fill-rule="evenodd" clip-rule="evenodd" fill="#00A3D3" d="M2.1,0h34.5c1.2,0,2.1,1,2.1,2.1v34.5c0,1.2-1,2.1-2.1,2.1H2.1
		c-1.2,0-2.1-1-2.1-2.1V2.1C0,1,1,0,2.1,0L2.1,0z M2.1,1.2h34.5c0.5,0,0.9,0.4,0.9,0.9v34.5c0,0.5-0.4,0.9-0.9,0.9H2.1
		c-0.5,0-0.9-0.4-0.9-0.9V2.1C1.2,1.7,1.7,1.2,2.1,1.2L2.1,1.2z"/>
	<path fill-rule="evenodd" clip-rule="evenodd" fill="#161717" d="M9.9,23.2c0,2,2.9,1.9,5,1.9c1,0.6,3.9,4.3,4.8,4.3
		c0.3,0,0.5-0.3,0.5-0.7V10.1c0-0.4-0.1-0.7-0.5-0.7c-1.2,0-3.7,3.6-4.8,4.3c-2.1,0-5-0.1-5,1.9V23.2z M24.8,29.6l1.4,1.2
		c1.4-2.5,2.7-6.8,2.7-10.5v-1.7c0-3.8-1.3-8.2-2.6-10.7l-1.4,1.2c1.2,2.3,2.1,5.8,2.1,9.3v1.9C26.9,23.7,26,27.4,24.8,29.6
		L24.8,29.6z M21.9,26.7l1.4,1.3c1-1.8,1.7-5,1.7-7.7v-2.4c0-2.2-1-5.7-1.7-7.1L21.9,12c0.5,1.3,1.2,4.1,1.2,6v2.9
		C23.1,23.5,22.4,24.7,21.9,26.7L21.9,26.7z"/>
</g>
</svg>
