<?xml version="1.0" encoding="utf-8"?>
<!-- Generator: Adobe Illustrator 18.1.1, SVG Export Plug-In . SVG Version: 6.00 Build 0)  -->
<svg version="1.1" id="Слой_1" xmlns="http://www.w3.org/2000/svg" xmlns:xlink="http://www.w3.org/1999/xlink" x="0px" y="0px"
	 viewBox="0 0 38.8 38.7" enable-background="new 0 0 38.8 38.7" xml:space="preserve">
<g>
	<path fill-rule="evenodd" clip-rule="evenodd" fill="#00A3D3" d="M2.1,0h34.5c1.2,0,2.1,1,2.1,2.1v34.5c0,1.2-1,2.1-2.1,2.1H2.1
		c-1.2,0-2.1-1-2.1-2.1V2.1C0,1,1,0,2.1,0L2.1,0z M2.1,1.2h34.5c0.5,0,0.9,0.4,0.9,0.9v34.5c0,0.5-0.4,0.9-0.9,0.9H2.1
		c-0.5,0-0.9-0.4-0.9-0.9V2.1C1.2,1.7,1.7,1.2,2.1,1.2L2.1,1.2z"/>
	<path fill-rule="evenodd" clip-rule="evenodd" fill="#161717" d="M8.3,17.8c-0.3,0-0.5,0-0.7,0l2.5-2.5l0,0v0
		c0.2-0.2,0.4-0.3,0.6-0.4c0.2,0,0.3,0,0.4,0.1c0.1,0.1,0.2,0.1,0.3,0.2c0.1,0.1,0.2,0.3,0.2,0.5l-0.6,0.6l0.6,0.6l0.6-0.6l0.1-0.1
		l0-0.1c0.1-0.5,0-1-0.3-1.3c-0.2-0.2-0.4-0.3-0.6-0.4c-0.3-0.1-0.5-0.1-0.8-0.1c-0.5,0-0.9,0.3-1.2,0.7l-3.7,3.7
		c-1.4,0.8-2.3,2.3-2.3,4c0,2.6,2.1,4.7,4.8,4.7c2.6,0,4.6-2,4.7-4.5h0c1-0.5,1.8-0.7,2.6-0.7c0.8,0,1.6,0.3,2.6,0.7
		c0.1,2.5,2.2,4.5,4.7,4.5c2.3,0,4.2-1.6,4.6-3.8l5.3-8.1c0.1-0.2,0.4-0.3,0.6-0.4c0.1,0,0.3,0,0.4,0.1c0.1,0.1,0.2,0.1,0.3,0.2
		c0.1,0.1,0.2,0.3,0.2,0.5l-0.6,0.6l0.6,0.6l0.6-0.6l0.1-0.1l0-0.1c0.1-0.5,0-1-0.3-1.3c-0.2-0.2-0.4-0.3-0.6-0.4
		c-0.2-0.1-0.5-0.1-0.8-0.1c-0.5,0-0.9,0.3-1.2,0.7l-4.5,6.9c-0.3-2.3-2.3-4-4.7-4c-2.4,0-4.4,1.7-4.7,4c-1-0.4-1.8-0.6-2.6-0.6
		c-0.9,0-1.7,0.2-2.7,0.6C12.7,19.6,10.7,17.8,8.3,17.8L8.3,17.8z M8.3,18.7c2.1,0,3.9,1.7,3.9,3.9c0,2.1-1.7,3.9-3.9,3.9
		s-3.9-1.7-3.9-3.9C4.4,20.4,6.1,18.7,8.3,18.7L8.3,18.7z M8.3,19.1c1.9,0,3.4,1.5,3.4,3.4c0,1.9-1.5,3.4-3.4,3.4
		c-1.9,0-3.4-1.5-3.4-3.4C4.8,20.7,6.3,19.1,8.3,19.1L8.3,19.1z M23,18.7c2.1,0,3.9,1.7,3.9,3.9c0,2.1-1.7,3.9-3.9,3.9
		s-3.9-1.7-3.9-3.9C19.2,20.4,20.9,18.7,23,18.7L23,18.7z M23,19.1c1.9,0,3.4,1.5,3.4,3.4c0,1.9-1.5,3.4-3.4,3.4
		c-1.9,0-3.4-1.5-3.4-3.4C19.6,20.6,21.1,19.1,23,19.1L23,19.1z"/>
</g>
</svg>
