<?xml version="1.0" encoding="utf-8"?>
<!-- Generator: Adobe Illustrator 18.1.1, SVG Export Plug-In . SVG Version: 6.00 Build 0)  -->
<svg version="1.1" id="Слой_1" xmlns="http://www.w3.org/2000/svg" xmlns:xlink="http://www.w3.org/1999/xlink" x="0px" y="0px"
	 viewBox="0 0 296.8 141.6" enable-background="new 0 0 296.8 141.6" xml:space="preserve">
<g>
	<path fill="#EF7F22" d="M69.1,90.1c0,5.7,0.9,9.8,2.7,12.3c1.8,2.5,4.1,3.5,6.8,3c2.7-0.5,5-2.3,6.8-5.5c1.8-3.2,2.7-7.7,2.7-13.5
		c0-5.5-0.9-9.5-2.7-12c-1.8-2.5-4.1-3.5-6.8-3c-2.7,0.5-5,2.3-6.8,5.4C70,80,69.1,84.5,69.1,90.1L69.1,90.1z M63.5,91.2
		c0-8.2,1.7-14.6,5-19.2c2.8-3.8,6.2-6,10.2-6.8c4.5-0.8,8.1,0.6,10.9,4.1c2.8,3.5,4.2,8.8,4.2,15.8c0,5.7-0.6,10.4-1.9,13.8
		c-1.3,3.5-3.1,6.4-5.5,8.6c-2.4,2.3-5,3.6-7.8,4.1c-4.5,0.8-8.2-0.5-11-4C64.9,104.2,63.5,98.6,63.5,91.2L63.5,91.2z M51.5,115.5
		V54.2l5.5-1v61.3L51.5,115.5z M35.6,118.3V79.7l-4.8,0.8v-5.9l4.8-0.8v-4.7c0-3,0.2-5.2,0.6-6.8c0.5-2.1,1.5-3.8,2.8-5.2
		c1.3-1.5,3.2-2.4,5.6-2.8c1.5-0.3,3.2-0.3,5.1-0.1l-0.8,6.7c-1.2-0.1-2.2,0-3.2,0.1c-1.7,0.3-2.8,1-3.5,2.1c-0.7,1.1-1,3-1,5.7v4.1
		l6.3-1.1v5.9L41,78.8v38.5L35.6,118.3z M20.4,121V76.6l5.5-1V120L20.4,121z M15,115.2l0.8,6.5c-1.5,0.7-2.9,1.2-4.1,1.4
		c-2,0.4-3.5,0.2-4.6-0.5c-1.1-0.7-1.9-1.7-2.3-3c-0.5-1.3-0.7-4.2-0.7-8.8V85.3L0,86v-5.9l4-0.7v-11L9.5,63v15.5l5.5-1v5.9l-5.5,1
		v26c0,2.1,0.1,3.5,0.3,4.1c0.2,0.6,0.5,1,1,1.3c0.4,0.3,1.1,0.4,1.9,0.2C13.2,115.8,14,115.6,15,115.2L15,115.2z"/>
	<polygon fill="#161717" points="20.4,68.3 20.4,59.7 25.9,58.7 25.9,67.4 	"/>
	<path fill="#161717" d="M99.3,110.7l5.4,0.1c0.2,2.2,0.8,3.7,1.9,4.6c1.4,1.1,3.2,1.5,5.6,1.1c2.6-0.5,4.5-1.5,5.9-3.1
		c1.4-1.7,2.3-3.8,2.8-6.4c0.3-1.6,0.4-4.8,0.4-9.7c-2.4,4.3-5.4,6.8-9,7.4c-4.5,0.8-7.9-0.8-10.3-4.8c-2.4-4-3.7-9-3.7-15.2
		c0-4.2,0.6-8.2,1.7-12c1.1-3.8,2.7-6.8,4.9-9.2c2.1-2.3,4.6-3.7,7.5-4.2c3.8-0.7,7,0.9,9.4,4.7v-5.3l5.1-0.9v38.4
		c0,6.9-0.5,11.9-1.5,15c-1,3.1-2.7,5.7-4.9,7.7c-2.2,2.1-5,3.4-8.2,4c-3.9,0.7-7,0.1-9.4-1.9C100.3,118.9,99.2,115.5,99.3,110.7
		L99.3,110.7z M103.8,83.2c0,5.8,0.8,9.9,2.6,12.3c1.7,2.4,3.8,3.3,6.3,2.9c2.5-0.5,4.6-2.1,6.3-5.1c1.7-3,2.6-7.3,2.6-13
		c0-5.4-0.9-9.4-2.6-11.8c-1.7-2.4-3.9-3.5-6.3-3c-2.5,0.4-4.5,2.1-6.3,5.2C104.7,73.7,103.8,77.9,103.8,83.2L103.8,83.2z
		 M135,100.7V56.3l4.9-0.9v6.7c1.3-3.3,2.4-5.7,3.5-6.8c1.1-1.2,2.3-1.9,3.5-2.1c1.9-0.3,3.7,0.2,5.7,1.4l-1.9,7.3
		c-1.3-0.8-2.7-1.2-4-0.9c-1.2,0.2-2.3,0.9-3.2,2.1c-1,1.2-1.6,2.7-2.1,4.5c-0.6,2.8-0.9,5.7-0.9,8.9v23.2L135,100.7z M177,87.8
		c-2,2.7-4,4.7-5.9,6c-1.9,1.3-3.9,2.1-6.1,2.5c-3.6,0.6-6.3-0.1-8.2-2.1c-1.9-2.1-2.8-5-2.8-8.6c0-2.2,0.3-4.2,1.1-6.2
		c0.7-1.9,1.7-3.5,2.8-4.8c1.2-1.3,2.5-2.4,3.9-3.2c1.1-0.6,2.7-1.2,4.9-2c4.5-1.5,7.7-3,9.8-4.3c0-1,0-1.7,0-1.9
		c0-3.1-0.5-5.1-1.5-6.2c-1.4-1.5-3.5-1.9-6.3-1.4c-2.6,0.5-4.5,1.4-5.7,2.9c-1.2,1.4-2.1,3.8-2.7,7.1l-5.4-0.1
		c0.5-3.2,1.3-5.9,2.4-8c1.1-2.1,2.7-3.9,4.8-5.3c2.1-1.4,4.6-2.4,7.4-2.9c2.8-0.5,5-0.4,6.7,0.1c1.7,0.6,3,1.5,3.8,2.7
		s1.4,2.8,1.7,4.8c0.2,1.3,0.3,3.5,0.3,6.9v10c0,7,0.1,11.4,0.4,13.2c0.2,1.8,0.7,3.5,1.4,5.1l-5.7,1
		C177.5,91.6,177.2,89.9,177,87.8L177,87.8z M176.5,71.1c-2,1.5-5,3-9,4.4c-2.3,0.8-3.9,1.6-4.8,2.3c-1,0.7-1.7,1.7-2.2,2.8
		c-0.5,1.2-0.8,2.4-0.8,3.7c0,2,0.6,3.6,1.7,4.7c1.1,1.1,2.7,1.5,4.8,1.1c2.1-0.4,4-1.3,5.7-2.9c1.6-1.5,2.8-3.5,3.6-5.9
		c0.6-1.8,0.9-4.4,0.9-7.7V71.1z M191.9,90.7V52.1l-4.8,0.9v-5.9l4.8-0.9v-4.7c0-3,0.2-5.2,0.6-6.8c0.5-2.1,1.4-3.8,2.8-5.2
		c1.3-1.5,3.2-2.4,5.6-2.8c1.5-0.3,3.2-0.3,5.1-0.1l-0.8,6.7c-1.1-0.1-2.2,0-3.2,0.2c-1.7,0.3-2.8,1-3.5,2.1c-0.7,1.1-1,3-1,5.7v4.1
		l6.3-1.1V50l-6.3,1.1v38.5L191.9,90.7z M212.6,86.9V42.5l5.5-1v44.4L212.6,86.9z M226.5,84.4V23.1l5.5-1v34.9l13-20.3l7.1-1.3
		l-12.4,18.7l13.7,25.5l-6.8,1.2L235.9,60l-3.9,5.8v17.6L226.5,84.4z M278.9,69.7c-2,2.7-4,4.8-5.9,6.1c-1.9,1.3-3.9,2.1-6.1,2.5
		c-3.5,0.6-6.3-0.1-8.2-2.1c-1.9-2.1-2.9-5-2.9-8.6c0-2.2,0.4-4.2,1.1-6.2c0.7-1.9,1.7-3.5,2.8-4.8c1.2-1.3,2.5-2.3,4-3.2
		c1.1-0.6,2.7-1.3,4.9-2c4.4-1.5,7.7-3,9.8-4.3c0-1,0-1.7,0-2c0-3.1-0.5-5.1-1.5-6.2c-1.4-1.5-3.5-1.9-6.3-1.5
		c-2.6,0.5-4.5,1.4-5.7,2.9c-1.2,1.5-2.1,3.8-2.7,7.1l-5.4-0.1c0.5-3.2,1.3-5.9,2.4-8c1.1-2.1,2.8-3.9,4.9-5.3
		c2.1-1.4,4.6-2.4,7.4-2.9c2.8-0.5,5-0.5,6.7,0.1c1.7,0.6,3,1.5,3.8,2.7c0.8,1.2,1.4,2.8,1.7,4.8c0.2,1.3,0.3,3.5,0.3,6.9v10
		c0,7,0.1,11.4,0.4,13.2c0.2,1.8,0.7,3.5,1.4,5.1l-5.7,1C279.4,73.5,279,71.7,278.9,69.7L278.9,69.7z M278.4,53c-2,1.5-5,3-9,4.4
		c-2.3,0.8-3.9,1.6-4.8,2.4c-0.9,0.7-1.7,1.7-2.1,2.8c-0.5,1.2-0.8,2.4-0.8,3.7c0,2,0.6,3.6,1.7,4.8c1.1,1.1,2.7,1.5,4.9,1.1
		c2.1-0.4,4-1.3,5.6-2.9c1.7-1.5,2.9-3.5,3.6-5.9c0.6-1.8,0.9-4.4,0.9-7.7V53z"/>
	<polygon fill="#EF7F22" points="212.6,34.2 212.6,25.6 218.1,24.6 218.1,33.3 	"/>
	<path fill="#161717" d="M139.1,112.9l9.2-1.6v16.1l-1.5,0.3v-14.2l-6.1,1.1v14.2l-1.5,0.3V112.9z M150.7,131.3v-16.1l1.3-0.3v1.5
		c0.3-0.6,0.6-1.2,1-1.5c0.4-0.4,0.9-0.6,1.4-0.7c0.7-0.1,1.4,0,1.9,0.5c0.5,0.4,1,1,1.2,1.9c0.3,0.9,0.4,1.9,0.4,3
		c0,1.2-0.1,2.3-0.5,3.3c-0.3,1-0.8,1.8-1.4,2.4c-0.6,0.6-1.2,1-1.9,1.1c-0.5,0.1-0.9,0-1.3-0.2c-0.4-0.2-0.7-0.5-0.9-0.9v5.7
		L150.7,131.3z M152,120.9c0,1.5,0.2,2.6,0.6,3.2c0.5,0.6,1,0.9,1.6,0.8c0.6-0.1,1.2-0.6,1.7-1.4c0.5-0.8,0.7-2,0.7-3.5
		c0-1.5-0.2-2.6-0.7-3.2c-0.5-0.7-1-1-1.6-0.8c-0.6,0.1-1.2,0.6-1.6,1.5C152.2,118.2,152,119.4,152,120.9L152,120.9z M159.3,119.5
		c0-2.1,0.4-3.8,1.3-5c0.7-1,1.6-1.6,2.7-1.8c1.2-0.2,2.1,0.2,2.9,1.1c0.7,0.9,1.1,2.3,1.1,4.2c0,1.5-0.2,2.7-0.5,3.6
		c-0.3,0.9-0.8,1.7-1.4,2.3c-0.6,0.6-1.3,1-2.1,1.1c-1.2,0.2-2.1-0.1-2.9-1C159.6,122.9,159.3,121.5,159.3,119.5L159.3,119.5z
		 M160.7,119.3c0,1.5,0.3,2.6,0.7,3.2c0.5,0.6,1.1,0.9,1.8,0.8c0.7-0.1,1.3-0.6,1.8-1.4c0.5-0.8,0.7-2,0.7-3.5
		c0-1.4-0.3-2.5-0.7-3.1c-0.5-0.7-1.1-0.9-1.8-0.8c-0.7,0.1-1.3,0.6-1.8,1.4C161,116.6,160.7,117.8,160.7,119.3L160.7,119.3z
		 M168.9,112l1.4-0.3v8.9l4-9.6l1.5-0.3v11.6l-1.4,0.3v-8.8l-4,9.5l-1.5,0.3V112z M179.9,116.4v-1.5c0.6-0.1,1-0.2,1.2-0.3
		c0.2-0.1,0.5-0.3,0.6-0.6c0.2-0.3,0.3-0.7,0.3-1.2c0-0.5-0.1-1-0.4-1.2c-0.3-0.3-0.6-0.4-1-0.3c-0.8,0.1-1.4,0.9-1.7,2.3l-1.4-0.1
		c0.4-2.3,1.4-3.5,3.1-3.8c0.9-0.1,1.6,0.1,2.1,0.6s0.8,1.4,0.8,2.3c0,1-0.3,1.8-1,2.4c0.4,0.2,0.7,0.6,1,1c0.2,0.5,0.3,1,0.3,1.7
		c0,1-0.3,1.9-0.8,2.7c-0.5,0.8-1.3,1.2-2.3,1.4c-1.9,0.3-3.1-0.6-3.4-3l1.4-0.6c0.1,0.7,0.4,1.3,0.8,1.6s0.8,0.5,1.3,0.4
		c0.5-0.1,0.9-0.3,1.2-0.8c0.3-0.4,0.5-0.9,0.5-1.5c0-0.5-0.1-0.8-0.3-1.1c-0.2-0.3-0.4-0.5-0.6-0.5c-0.2-0.1-0.6,0-1.2,0.1
		C180.2,116.4,180.1,116.4,179.9,116.4L179.9,116.4z M185.6,109.1l3.3-0.6c0.8-0.2,1.4-0.2,1.8-0.1c0.4,0.1,0.7,0.4,1,0.8
		c0.3,0.5,0.4,1,0.4,1.7c0,0.5-0.1,1-0.3,1.5c-0.2,0.5-0.4,0.8-0.8,1.2c0.4,0.1,0.7,0.4,1,0.8c0.3,0.5,0.4,1,0.4,1.7
		c-0.1,1.1-0.3,2-0.9,2.6c-0.5,0.6-1.3,1-2.3,1.2l-3.8,0.7V109.1z M187,113.7l1.5-0.3c0.6-0.1,1-0.2,1.3-0.4
		c0.2-0.1,0.4-0.3,0.6-0.6c0.2-0.3,0.3-0.6,0.3-1c0-0.6-0.1-1-0.5-1.2c-0.3-0.2-0.8-0.2-1.6-0.1l-1.6,0.3V113.7z M187,118.8l1.9-0.3
		c0.8-0.1,1.4-0.4,1.7-0.7c0.3-0.3,0.5-0.8,0.5-1.4c0-0.4-0.1-0.7-0.3-1c-0.2-0.3-0.4-0.5-0.7-0.5c-0.3,0-0.8,0-1.4,0.1l-1.7,0.3
		V118.8z M193.5,113.5c0-2.2,0.5-3.8,1.3-5c0.7-1,1.6-1.6,2.7-1.8c1.2-0.2,2.1,0.1,2.8,1.1c0.8,0.9,1.1,2.3,1.1,4.1
		c0,1.5-0.2,2.7-0.5,3.6c-0.3,0.9-0.8,1.7-1.4,2.3c-0.6,0.6-1.3,0.9-2,1.1c-1.2,0.2-2.2-0.1-2.9-1.1
		C193.9,116.9,193.5,115.4,193.5,113.5L193.5,113.5z M195,113.2c0,1.5,0.2,2.6,0.7,3.2c0.5,0.7,1.1,0.9,1.8,0.8
		c0.7-0.1,1.3-0.6,1.8-1.4c0.5-0.8,0.7-2,0.7-3.5c0-1.4-0.2-2.5-0.7-3.2c-0.5-0.6-1.1-0.9-1.8-0.8c-0.7,0.1-1.3,0.6-1.8,1.4
		C195.2,110.6,195,111.7,195,113.2L195,113.2z M203.9,105.8l5.9-1v10l0.9-0.1v4.9l-1.2,0.2v-3.3l-6.7,1.2v3.3l-1.2,0.2v-4.9l0.8-0.1
		C203.5,114,204,110.6,203.9,105.8L203.9,105.8z M205.2,107.2c-0.1,3.8-0.5,6.7-1.3,8.6l4.6-0.8v-8.4L205.2,107.2z M217.9,110.7h1.4
		c-0.2,1.4-0.6,2.5-1.2,3.3c-0.6,0.9-1.4,1.4-2.4,1.5c-1.2,0.2-2.1-0.1-2.8-1.1c-0.7-0.9-1.1-2.3-1.1-4.3c0-1.3,0.2-2.4,0.5-3.4
		c0.3-1,0.8-1.8,1.4-2.4c0.6-0.6,1.3-0.9,2-1.1c0.9-0.2,1.7,0,2.3,0.6c0.6,0.5,1,1.4,1.1,2.5l-1.4,0.5c-0.1-0.8-0.4-1.3-0.7-1.6
		c-0.3-0.3-0.7-0.5-1.2-0.4c-0.7,0.1-1.3,0.6-1.8,1.4c-0.5,0.8-0.7,2-0.7,3.5s0.2,2.6,0.6,3.3c0.5,0.6,1,0.9,1.7,0.8
		c0.6-0.1,1-0.4,1.4-1C217.6,112.5,217.8,111.7,217.9,110.7L217.9,110.7z M219.8,103l6.9-1.2v1.6l-2.7,0.5v10l-1.4,0.3v-10l-2.7,0.5
		V103z M228.1,101.5l3.3-0.6c0.8-0.1,1.4-0.1,1.8,0c0.4,0.1,0.7,0.4,1,0.8c0.3,0.5,0.4,1,0.4,1.7c0,0.5-0.1,1-0.3,1.5
		c-0.2,0.4-0.4,0.8-0.8,1.2c0.4,0.1,0.7,0.4,1,0.9c0.3,0.5,0.4,1,0.4,1.7c-0.1,1.1-0.3,2-0.8,2.6c-0.5,0.6-1.3,1-2.3,1.2l-3.8,0.7
		V101.5z M229.5,106.2l1.5-0.3c0.6-0.1,1-0.2,1.3-0.4c0.2-0.1,0.5-0.3,0.6-0.6c0.2-0.3,0.3-0.6,0.3-1c0-0.6-0.2-1-0.5-1.2
		c-0.3-0.2-0.9-0.2-1.6-0.1l-1.6,0.3V106.2z M229.5,111.3l1.9-0.3c0.8-0.1,1.4-0.4,1.7-0.7s0.5-0.8,0.5-1.4c0-0.4-0.1-0.7-0.3-1
		c-0.2-0.3-0.4-0.5-0.7-0.5s-0.7,0-1.4,0.1l-1.7,0.3V111.3z M242.4,106.9l1.5,0c-0.2,1.2-0.7,2.3-1.3,3c-0.6,0.8-1.5,1.2-2.5,1.4
		c-1.2,0.2-2.2-0.1-2.9-1c-0.7-0.9-1.1-2.3-1.1-4.2c0-2,0.4-3.5,1.1-4.8c0.7-1.2,1.7-1.9,2.9-2.1c1.1-0.2,2.1,0.1,2.8,1.1
		c0.7,0.9,1.1,2.3,1.1,4.3c0,0.1,0,0.3,0,0.5l-6.3,1.1c0,1.3,0.3,2.2,0.8,2.8c0.5,0.6,1.1,0.8,1.8,0.7c0.5-0.1,1-0.4,1.4-0.8
		C241.9,108.4,242.1,107.8,242.4,106.9L242.4,106.9z M237.6,104.6l4.8-0.8c-0.1-1-0.3-1.7-0.6-2.1c-0.5-0.7-1-0.9-1.8-0.8
		c-0.6,0.1-1.2,0.5-1.7,1.2C237.9,102.7,237.7,103.5,237.6,104.6L237.6,104.6z M245.7,98.4l1.4-0.3v4.8l4-0.7v-4.9l1.4-0.3v11.6
		l-1.4,0.3v-5.2l-4,0.7v5.1l-1.4,0.3V98.4z M254.7,96.8l1.4-0.3v4.8l4-0.7v-4.8l1.4-0.3v11.6l-1.4,0.3v-5.1l-4,0.7v5.1l-1.4,0.3
		V96.8z M269.3,104.5c-0.5,0.7-1,1.2-1.5,1.6c-0.5,0.3-1,0.6-1.6,0.7c-0.9,0.1-1.6,0-2.1-0.6s-0.7-1.3-0.7-2.3
		c0-0.6,0.1-1.1,0.3-1.6c0.2-0.5,0.4-0.9,0.7-1.3c0.3-0.3,0.6-0.6,1-0.8c0.3-0.2,0.7-0.3,1.3-0.5c1.2-0.4,2-0.8,2.6-1.1
		c0-0.3,0-0.5,0-0.5c0-0.8-0.1-1.4-0.4-1.6c-0.4-0.4-0.9-0.5-1.6-0.4c-0.7,0.1-1.2,0.4-1.5,0.8c-0.3,0.4-0.6,1-0.7,1.9l-1.4,0
		c0.1-0.8,0.3-1.5,0.6-2.1c0.3-0.5,0.7-1,1.3-1.4c0.6-0.4,1.2-0.6,1.9-0.8c0.7-0.1,1.3-0.1,1.8,0c0.5,0.2,0.8,0.4,1,0.7
		c0.2,0.3,0.4,0.8,0.5,1.3c0.1,0.3,0.1,0.9,0.1,1.8v2.6c0,1.8,0,3,0.1,3.5c0.1,0.5,0.2,0.9,0.4,1.3l-1.5,0.3
		C269.4,105.5,269.3,105,269.3,104.5L269.3,104.5z M269.2,100.1c-0.5,0.4-1.3,0.8-2.3,1.2c-0.6,0.2-1,0.4-1.3,0.6
		c-0.2,0.2-0.4,0.4-0.6,0.7s-0.2,0.6-0.2,1c0,0.5,0.1,0.9,0.4,1.2c0.3,0.3,0.7,0.4,1.3,0.3c0.5-0.1,1-0.3,1.5-0.7
		c0.5-0.4,0.8-0.9,1-1.5c0.2-0.5,0.2-1.2,0.2-2V100.1z M279.5,92.5v11.6l-1.4,0.3v-4.5l-0.8,0.1c-0.5,0.1-0.9,0.3-1.1,0.5
		c-0.3,0.2-0.6,0.9-1.1,1.9l-1.2,2.8l-1.8,0.3l1.5-3.4c0.5-1,0.9-1.7,1.4-1.9c-0.8,0-1.4-0.3-1.8-0.9c-0.4-0.6-0.6-1.3-0.6-2.2
		c0-1,0.3-1.9,0.8-2.6c0.5-0.7,1.3-1.2,2.3-1.4L279.5,92.5z M278.1,94.3l-2,0.4c-0.9,0.1-1.4,0.4-1.7,0.8c-0.3,0.4-0.4,0.8-0.4,1.3
		c0,0.7,0.2,1.2,0.5,1.4c0.4,0.3,1,0.3,1.9,0.1l1.6-0.3V94.3z"/>
	<path fill="#161717" d="M209,130l1.4-0.3v5c0.5-0.1,0.8-0.3,1-0.5c0.2-0.3,0.5-1,0.8-2.3c0.3-1,0.5-1.6,0.7-1.9
		c0.2-0.3,0.4-0.6,0.6-0.7s0.6-0.3,1.1-0.3l0.3-0.1v1.6l-0.4,0.1c-0.4,0.1-0.6,0.2-0.7,0.4c-0.1,0.2-0.3,0.7-0.5,1.5
		c-0.2,0.8-0.4,1.4-0.6,1.7c-0.2,0.3-0.5,0.6-0.8,0.9c0.6,0.1,1.2,0.8,1.8,2.1l1.6,3.3l-1.6,0.3l-1.5-3.3c-0.3-0.7-0.6-1.1-0.8-1.3
		c-0.3-0.2-0.5-0.3-0.8-0.2v5.4l-1.4,0.3V130z M215.8,134.6c0-2.2,0.4-3.8,1.3-5c0.7-1,1.6-1.6,2.7-1.7c1.2-0.2,2.1,0.1,2.9,1.1
		c0.7,0.9,1.1,2.3,1.1,4.1c0,1.5-0.2,2.7-0.5,3.6c-0.3,0.9-0.8,1.7-1.4,2.3c-0.6,0.6-1.3,0.9-2.1,1.1c-1.2,0.2-2.1-0.1-2.9-1.1
		C216.2,138,215.8,136.6,215.8,134.6L215.8,134.6z M217.3,134.3c0,1.5,0.3,2.6,0.7,3.2c0.5,0.6,1.1,0.9,1.8,0.8
		c0.7-0.1,1.3-0.6,1.8-1.4c0.5-0.8,0.7-2,0.7-3.5c0-1.4-0.3-2.5-0.7-3.2c-0.5-0.6-1.1-0.9-1.8-0.8c-0.7,0.1-1.3,0.6-1.8,1.4
		C217.5,131.7,217.3,132.9,217.3,134.3L217.3,134.3z M225.5,127.1l2.3-0.4l2.2,8.9l2.5-9.7l2.1-0.4v11.6l-1.4,0.3V128l-2.5,9.8
		l-1.3,0.2l-2.4-9.4v9.8l-1.4,0.3V127.1z M236.7,125.1l6.7-1.2v11.6l-1.4,0.3v-10l-3.8,0.7v10l-1.4,0.3V125.1z M251.1,132.7
		c-0.5,0.7-1,1.2-1.5,1.6c-0.5,0.3-1,0.6-1.6,0.7c-0.9,0.2-1.7,0-2.1-0.6c-0.5-0.5-0.8-1.3-0.8-2.3c0-0.6,0.1-1.1,0.3-1.6
		s0.5-0.9,0.7-1.3c0.3-0.3,0.7-0.6,1-0.8c0.3-0.2,0.7-0.3,1.3-0.5c1.2-0.4,2-0.8,2.6-1.1c0-0.3,0-0.5,0-0.5c0-0.8-0.1-1.4-0.4-1.6
		c-0.4-0.4-0.9-0.5-1.6-0.4c-0.7,0.1-1.2,0.4-1.5,0.8c-0.3,0.4-0.6,1-0.7,1.9l-1.4,0c0.1-0.8,0.3-1.5,0.6-2.1c0.3-0.6,0.7-1,1.3-1.4
		c0.6-0.4,1.2-0.6,1.9-0.8c0.7-0.1,1.3-0.1,1.7,0.1c0.5,0.1,0.8,0.4,1,0.7c0.2,0.3,0.4,0.7,0.5,1.2c0,0.3,0.1,0.9,0.1,1.8v2.6
		c0,1.8,0,3,0.1,3.5c0.1,0.5,0.2,0.9,0.3,1.3l-1.5,0.3C251.2,133.7,251.1,133.3,251.1,132.7L251.1,132.7z M251,128.4
		c-0.5,0.4-1.3,0.8-2.4,1.2c-0.6,0.2-1,0.4-1.2,0.6c-0.3,0.2-0.5,0.5-0.6,0.8c-0.1,0.3-0.2,0.6-0.2,1c0,0.5,0.2,0.9,0.5,1.2
		c0.3,0.3,0.7,0.4,1.3,0.3c0.6-0.1,1-0.4,1.5-0.8c0.4-0.4,0.7-0.9,0.9-1.5c0.2-0.5,0.3-1.2,0.3-2V128.4z M254.7,121.9l1.4-0.3v4.8
		l4-0.7V121l1.5-0.3v11.6l-1.5,0.3v-5.1l-4,0.7v5.1l-1.4,0.3V121.9z M263.7,120.3l1.4-0.3v8.9l4-9.6l1.5-0.3v11.6l-1.4,0.3v-8.8
		l-4,9.5l-1.5,0.3V120.3z M279.5,117.5v11.6l-1.4,0.3v-4.5l-0.8,0.1c-0.5,0.1-0.9,0.3-1.1,0.5c-0.3,0.2-0.6,0.8-1.1,1.9l-1.2,2.8
		l-1.8,0.3l1.5-3.4c0.5-1,0.9-1.7,1.4-1.9c-0.8,0-1.4-0.3-1.8-0.9c-0.4-0.6-0.6-1.3-0.6-2.2c0-1,0.3-1.9,0.8-2.6
		c0.5-0.7,1.3-1.2,2.3-1.4L279.5,117.5z M278.1,119.4l-2,0.4c-0.9,0.2-1.4,0.5-1.7,0.8c-0.3,0.4-0.4,0.9-0.4,1.4
		c0,0.7,0.2,1.2,0.5,1.4c0.4,0.3,1,0.3,1.9,0.1l1.6-0.3V119.4z"/>
	<path fill="#161717" d="M288,0c2.5,0,4.7,1.3,6.3,3.3c1.6,2,2.6,4.8,2.6,7.9c0,3-1,5.8-2.6,7.9c-1.6,2-3.8,3.3-6.3,3.3
		c-2.5,0-4.6-1.3-6.3-3.3c-1.6-2-2.5-4.8-2.5-7.9c0-3.1,1-5.9,2.5-7.9C283.4,1.3,285.6,0,288,0L288,0z M293.7,3.7
		c-1.5-1.9-3.5-3-5.7-3c-2.2,0-4.2,1.2-5.7,3c-1.5,1.9-2.4,4.5-2.4,7.4s0.9,5.5,2.4,7.4c1.4,1.9,3.5,3,5.7,3c2.2,0,4.2-1.2,5.7-3
		c1.5-1.9,2.4-4.5,2.4-7.4S295.2,5.7,293.7,3.7L293.7,3.7z"/>
	<path fill="#161717" d="M290.9,13l1.7,0.3c-0.2,1.6-0.7,2.8-1.5,3.7c-0.8,0.9-1.8,1.3-2.9,1.3c-1.5,0-2.6-0.6-3.5-1.8
		c-0.9-1.2-1.3-3-1.3-5.2c0-1.5,0.2-2.7,0.6-3.8c0.4-1.1,1-1.9,1.7-2.5c0.8-0.5,1.6-0.8,2.5-0.8c1.2,0,2.1,0.4,2.8,1.1
		c0.7,0.7,1.2,1.8,1.4,3.2l-1.7,0.4c-0.2-0.9-0.5-1.6-0.9-2.1c-0.4-0.5-0.9-0.7-1.5-0.7c-0.9,0-1.7,0.4-2.2,1.2
		c-0.6,0.8-0.8,2.1-0.8,3.9c0,1.8,0.3,3.2,0.8,4c0.6,0.8,1.3,1.2,2.1,1.2c0.7,0,1.3-0.3,1.8-0.8C290.5,15,290.8,14.1,290.9,13
		L290.9,13z"/>
</g>
</svg>
