<?xml version="1.0" encoding="utf-8"?>
<!-- Generator: Adobe Illustrator 18.1.1, SVG Export Plug-In . SVG Version: 6.00 Build 0)  -->
<svg version="1.1" id="Слой_1" xmlns="http://www.w3.org/2000/svg" xmlns:xlink="http://www.w3.org/1999/xlink" x="0px" y="0px"
	 viewBox="0 0 24.7 46.1" enable-background="new 0 0 24.7 46.1" xml:space="preserve">
<g>
	<path fill-rule="evenodd" clip-rule="evenodd" fill="#0292CA" d="M4.1,24.3C-0.5,14-1.3,4,2.2,1.4C2.7,1,3.3,0.8,4,0.7L8.1,13
		l-2.3,0.6c0.9,6.3,3.4,11.6,7.2,16.2l1.9-1.1l6.2,11.1c-0.5,0.4-1,0.6-1.5,0.8l0,0c0.3,1.5,0.1,2.8-0.6,3.7
		c-0.7,0.9-1.7,1.5-3.2,1.8c-0.2,0.1-0.3-0.1-0.4-0.2c0-0.2,0.1-0.3,0.3-0.4c1.3-0.3,2.3-0.8,2.8-1.6c0.5-0.8,0.7-1.8,0.5-3.2l0,0
		C14.8,41.1,8.5,34,4.1,24.3L4.1,24.3z"/>
	<path fill-rule="evenodd" clip-rule="evenodd" fill="#0292CA" d="M12.5,8.2c0.5,2.6-0.8,3.9-3.2,4.4l-4-12.3c1.8-0.6,3.4-0.4,4.6,1
		C11,2.5,12.4,7.4,12.5,8.2L12.5,8.2z"/>
	<path fill-rule="evenodd" clip-rule="evenodd" fill="#0292CA" d="M24.3,34.4c0.9,2.4,0,3.9-2.3,4.8l-6-11.1c1.6-0.9,3.2-1,4.6,0.2
		C21.8,29.2,24,33.6,24.3,34.4L24.3,34.4z"/>
</g>
</svg>
