<?xml version="1.0" encoding="utf-8"?>
<!-- Generator: Adobe Illustrator 18.1.1, SVG Export Plug-In . SVG Version: 6.00 Build 0)  -->
<svg version="1.1" id="Слой_1" xmlns="http://www.w3.org/2000/svg" xmlns:xlink="http://www.w3.org/1999/xlink" x="0px" y="0px"
	 viewBox="0 0 33.5 33.5" enable-background="new 0 0 33.5 33.5" xml:space="preserve">
<g>
	<path fill-rule="evenodd" clip-rule="evenodd" fill="#FFFFFF" d="M32.6,28.1l-7.7-7.7c-1.2,1.8-2.7,3.3-4.5,4.4l7.7,7.7
		c1.2,1.2,3.2,1.2,4.5,0C33.9,31.4,33.9,29.4,32.6,28.1L32.6,28.1z M12.6,22c-5.2,0-9.4-4.2-9.4-9.4c0-5.2,4.2-9.4,9.4-9.4
		c5.2,0,9.4,4.2,9.4,9.4C22,17.8,17.8,22,12.6,22L12.6,22z M25.2,12.6C25.2,5.6,19.5,0,12.6,0C5.6,0,0,5.6,0,12.6
		c0,6.9,5.6,12.5,12.6,12.5C19.5,25.1,25.2,19.5,25.2,12.6L25.2,12.6z M5.2,12.6h2.1c0-2.9,2.3-5.2,5.2-5.2V5.2
		C8.5,5.2,5.2,8.5,5.2,12.6L5.2,12.6z"/>
</g>
</svg>
