<?xml version="1.0" encoding="utf-8"?>
<!-- Generator: Adobe Illustrator 18.1.1, SVG Export Plug-In . SVG Version: 6.00 Build 0)  -->
<svg version="1.1" id="Слой_1" xmlns="http://www.w3.org/2000/svg" xmlns:xlink="http://www.w3.org/1999/xlink" x="0px" y="0px"
	 viewBox="0 0 39 39" enable-background="new 0 0 39 39" xml:space="preserve">
<g>
	<path fill-rule="evenodd" clip-rule="evenodd" fill="#0292CA" d="M19.5,2.8c-9.2,0-16.7,7.5-16.7,16.7c0,9.2,7.5,16.7,16.7,16.7
		c9.2,0,16.7-7.5,16.7-16.7C36.2,10.3,28.8,2.8,19.5,2.8L19.5,2.8z M19.5,0C30.3,0,39,8.7,39,19.5S30.3,39,19.5,39S0,30.3,0,19.5
		S8.7,0,19.5,0L19.5,0z"/>
	<path fill-rule="evenodd" clip-rule="evenodd" fill="#0292CA" d="M21,18H31c0.8,0,1.5,0.7,1.5,1.5c0,0.8-0.7,1.5-1.5,1.5H19.5
		c-0.8,0-1.5-0.7-1.5-1.5V8.2c0-0.9,0.7-1.5,1.5-1.5c0.9,0,1.6,0.7,1.6,1.5V18z"/>
</g>
</svg>
